<svg width="50" height="51" viewBox="0 0 50 51" fill="none" xmlns="http://www.w3.org/2000/svg">
<g clip-path="url(#clip0_2358_1178)">
<path d="M22.6563 0.777172C19.6875 1.32405 17.0215 2.76936 14.9902 4.94709C13.6523 6.39241 12.627 8.13069 12.0117 10.0057C11.543 11.4315 11.3867 12.4373 11.3867 14.0584C11.3867 15.3572 11.416 15.6405 11.6602 16.5975C12.6953 20.6209 15.6836 26.8221 20.4199 34.7811C21.9922 37.4178 22.207 37.7205 22.832 38.1502C24.4043 39.2342 26.7773 38.9217 27.9004 37.4764C28.0664 37.2713 28.8184 36.0506 29.5898 34.7615C33.623 27.994 36.5039 22.242 37.7832 18.4237C38.4863 16.324 38.623 15.5819 38.6133 13.9608C38.5938 11.2947 37.8516 8.87287 36.3379 6.61702C34.2871 3.55061 30.9668 1.41194 27.3047 0.777172C26.2305 0.591625 23.6816 0.591625 22.6563 0.777172ZM26.4941 8.12092C28.2617 8.6385 29.7559 10.1619 30.2246 11.9197C30.4102 12.6229 30.4297 13.8826 30.2637 14.5467C29.873 16.119 28.8379 17.408 27.373 18.1502C24.3164 19.6834 20.5664 17.9158 19.7363 14.5467C19.5703 13.8826 19.5898 12.6229 19.7754 11.9197C20.3027 9.90803 22.0508 8.33576 24.1504 7.9549C24.7754 7.84748 25.8203 7.91584 26.4941 8.12092Z" fill="white"/>
<path d="M16.065 33.902C14.2584 34.3317 13.6724 34.4879 12.8912 34.7614C10.6353 35.5231 9.20953 36.529 8.66266 37.7204C8.35992 38.3747 8.36969 39.4782 8.67242 40.1032C9.35602 41.4997 11.1236 42.5836 13.9459 43.3649C21.9048 45.5426 34.5709 44.8786 39.4244 42.027C40.1666 41.5875 41.0162 40.7379 41.3189 40.1325C41.6412 39.4782 41.6509 38.3942 41.3384 37.7204C40.6158 36.1383 38.3111 34.8883 34.6588 34.068C33.6627 33.8532 33.4576 33.8336 33.3599 33.9411C33.1939 34.1266 31.8365 36.4606 31.8365 36.5582C31.8365 36.6071 32.1783 36.695 32.5982 36.7633C33.7505 36.9489 35.8013 37.486 36.6705 37.8278C37.4615 38.1403 38.4771 38.7457 38.4771 38.902C38.4771 39.195 36.8463 39.9665 35.2545 40.4254C32.4029 41.2457 29.4048 41.5875 25.0005 41.5875C20.5963 41.5875 17.6373 41.2457 14.7271 40.4157C13.1548 39.9665 11.524 39.195 11.524 38.902C11.524 38.736 12.5689 38.1305 13.4576 37.7887C14.4244 37.4176 16.192 36.9586 17.4127 36.7633C17.8326 36.695 18.1646 36.5875 18.1646 36.529C18.1548 36.4704 17.813 35.8454 17.3931 35.152C16.6216 33.8727 16.5338 33.7848 16.065 33.902Z" fill="white"/>
<path d="M3.74065 35.9236C1.79729 37.1248 0.605886 38.4236 0.176198 39.8201C0.0199484 40.3572 -0.0191141 40.6697 0.0199484 41.4412C0.0492453 42.3201 0.0883078 42.4666 0.430105 43.1599C1.66057 45.6501 5.19573 47.6912 10.6547 49.0681C14.8832 50.1326 19.4633 50.6306 24.9809 50.6306C30.5375 50.6306 34.8149 50.1716 39.1117 49.1169C43.4965 48.0427 46.4164 46.6853 48.2524 44.8689C49.0336 44.1072 49.2582 43.8044 49.5707 43.1599C49.9028 42.4568 49.9516 42.2908 49.9809 41.4314C50.0492 39.9373 49.6 38.824 48.4575 37.6033C48.018 37.1345 46.7778 36.2068 46.0453 35.7869C45.5571 35.5037 45.4301 35.4744 44.9125 35.5134C44.395 35.5525 44.2875 35.6013 43.975 35.9041C43.6723 36.2068 43.6137 36.3435 43.5746 36.7927C43.5063 37.6033 43.7114 37.9255 44.6586 38.531C46.8168 39.8982 47.4125 40.9236 46.6996 42.0466C45.3617 44.1267 40.4399 46.0701 34.0824 47.0173C28.5942 47.8279 21.4946 47.8279 15.9574 47.0173C9.60003 46.0896 4.63909 44.1365 3.3012 42.0466C2.58831 40.9236 3.18401 39.8982 5.34221 38.531C6.28948 37.9255 6.49456 37.6033 6.4262 36.7927C6.38714 36.3435 6.32854 36.2068 6.02581 35.9041C5.70354 35.5818 5.61565 35.5525 5.05901 35.5232C4.47307 35.4841 4.40471 35.5134 3.74065 35.9236Z" fill="white"/>
</g>
<defs>
<clipPath id="clip0_2358_1178">
<rect width="50" height="50" fill="white" transform="translate(0 0.630615)"/>
</clipPath>
</defs>
</svg>
