<svg width="60" height="61" viewBox="0 0 60 61" fill="none" xmlns="http://www.w3.org/2000/svg">
<path d="M18.5746 2.84551C17.9652 3.10332 17.9886 2.51739 17.9535 14.5408C17.93 23.5525 17.9535 25.7205 18.0707 25.6619C18.8558 25.3455 19.5707 25.2166 20.2972 25.2752C21.3168 25.3572 21.9379 25.6502 23.2269 26.6111C24.3636 27.4549 24.7035 27.5721 26.0863 27.5838C26.5433 27.5838 27.1761 27.6658 27.4925 27.7596C27.9847 27.9119 29.5082 27.9354 37.6996 27.9354H47.3324L47.5668 28.24C47.9652 28.7439 47.848 29.2479 47.2621 29.5525C47.0746 29.658 44.7777 29.6932 38.6371 29.6932H30.2582L30.5277 30.3611C30.68 30.7361 30.8675 31.3924 30.9496 31.826L31.1019 32.6229H39.1644H47.2386L47.5199 32.9158C47.8949 33.2791 47.8949 33.7244 47.5199 34.0877L47.2386 34.3807H39.891H32.5433L33.0004 34.8729C33.6214 35.5408 33.9379 36.0916 34.1254 36.7596L34.266 37.3104H40.7582H47.2386L47.5199 37.6033C47.8949 37.9666 47.8949 38.4119 47.5199 38.7752L47.2386 39.0682H40.723H34.1957L34.1254 39.326C34.0902 39.4666 33.8089 40.076 33.4925 40.6854C32.8714 41.9158 32.8246 42.2557 33.0589 43.9549C33.1527 44.6346 33.1527 45.0447 33.0472 45.5604C32.9066 46.2635 32.4613 47.3064 32.2269 47.4471C32.1683 47.4822 32.1097 47.5643 32.1097 47.6346C32.1097 47.7049 35.8011 47.7283 42.141 47.7166L52.1722 47.6814L52.3949 47.4002C52.6175 47.1307 52.6175 46.615 52.6175 25.24C52.6175 3.86504 52.6175 3.34942 52.3949 3.07989L52.1722 2.79864L35.4847 2.7752C26.3207 2.76348 18.7035 2.79864 18.5746 2.84551ZM47.5199 9.36114C47.8949 9.72442 47.8949 10.1697 47.5199 10.533L47.2386 10.826H35.3324H23.4261L23.1449 10.533C22.7464 10.1463 22.7582 9.63067 23.1566 9.31426C23.473 9.06817 23.5082 9.06817 35.3558 9.06817H47.2386L47.5199 9.36114ZM47.5199 14.0486C47.8949 14.4119 47.8949 14.8572 47.5199 15.2205L47.2386 15.5135H35.3558C23.5082 15.5135 23.473 15.5135 23.1566 15.2674C22.7582 14.951 22.7464 14.4354 23.1449 14.0486L23.4261 13.7557H35.3324H47.2386L47.5199 14.0486ZM47.3324 18.6189C47.8714 18.8885 47.9652 19.3924 47.5668 19.8963L47.3324 20.201H35.3558H23.391L23.1214 19.9432C22.6879 19.533 22.8168 18.783 23.3558 18.5604C23.4964 18.5018 28.8636 18.4549 35.3089 18.4549C45.3519 18.4432 47.0511 18.4666 47.3324 18.6189ZM47.5082 23.4705C47.9066 23.8455 47.9066 24.2908 47.5082 24.6658L47.2035 24.9471L35.4964 24.9822C25.4769 25.0057 23.7308 24.9822 23.3793 24.8416C22.9457 24.6541 22.7699 24.2791 22.8988 23.7635C23.0629 23.1189 22.7113 23.1307 35.473 23.1658L47.2035 23.1893L47.5082 23.4705Z" fill="white"/>
<path d="M18.9141 27.2205C18.6562 27.3377 17.9766 27.783 17.3906 28.2166C16.8164 28.6385 16.1602 29.0486 15.9375 29.1072C15.7031 29.1658 14.8945 29.2713 14.1094 29.3182C11.6953 29.5057 11.2148 29.9275 10.6172 32.4236C10.4531 33.115 10.2539 33.8065 10.1836 33.9471C10.1016 34.0877 9.52734 34.7322 8.89453 35.3768C7.62891 36.6658 7.38281 37.1111 7.38281 38.0486C7.38281 38.5877 7.48828 38.9158 8.0625 40.076C8.8125 41.6346 8.84766 41.8807 8.625 44.1893C8.54297 45.0916 8.55469 45.3611 8.71875 45.783C9.01172 46.5682 9.63281 47.0721 11.0508 47.6815C11.7422 47.9861 12.4453 48.3377 12.6094 48.4666C12.7734 48.5955 13.2188 49.1815 13.6172 49.7791C14.4961 51.1033 14.707 51.3377 15.2578 51.619C16.0781 52.0408 16.582 52.0291 18.2344 51.5486C19.9453 51.0447 20.1211 51.0565 22.1484 51.6658C24.0352 52.2518 24.8672 51.9002 26.1328 50.0252C26.5781 49.3572 27.1289 48.6658 27.3398 48.49C27.5625 48.3143 28.3125 47.9275 29.0039 47.6111C31.2891 46.5916 31.4766 46.1932 31.2305 42.9705L31.1367 41.6697L31.8164 40.24C32.9648 37.826 32.8828 37.2752 31.1016 35.4354C30.4453 34.7557 29.8359 34.0408 29.7305 33.8533C29.6367 33.6541 29.4141 32.9158 29.25 32.2127C28.8867 30.7244 28.582 30.1854 27.8438 29.7518C27.3984 29.494 27.1055 29.4354 25.8164 29.3299C24.9961 29.2713 24.1523 29.1658 23.9414 29.0955C23.7305 29.0252 23.0273 28.5799 22.3711 28.1111C20.8008 26.9627 19.9688 26.74 18.9141 27.2205ZM22.3477 32.5291C26.707 34.076 28.6055 39.2088 26.2852 43.158C25.4062 44.6463 23.7891 45.9471 22.1484 46.4627C18.2109 47.7283 13.8516 45.2791 12.832 41.2361C12.6094 40.3455 12.6094 38.6111 12.832 37.7205C13.4766 35.1775 15.6094 33.0213 18.1641 32.3299C19.1836 32.0486 21.2812 32.1541 22.3477 32.5291Z" fill="white"/>
<path d="M22.9102 36.1853C22.7227 36.2673 21.75 37.1697 20.7539 38.1892L18.9492 40.0291L18 39.0798C17.0859 38.1658 17.0273 38.1306 16.5 38.1306C16.043 38.1306 15.9141 38.1892 15.6562 38.4939C15.4453 38.74 15.3516 38.9861 15.3516 39.2791C15.3516 39.6658 15.4805 39.8298 16.9102 41.2595C18.4336 42.783 18.4805 42.8181 18.9844 42.8181C19.5 42.8181 19.5 42.8181 21.9375 40.3923C23.4492 38.8806 24.4219 37.8259 24.4922 37.6033C24.8086 36.6541 23.8242 35.7751 22.9102 36.1853Z" fill="white"/>
<path d="M28.8867 49.5213C28.4414 49.7674 28.1016 50.1424 27.4922 51.0799C26.4492 52.6619 25.5703 53.3299 24.1172 53.6112C23.7422 53.6815 23.4375 53.7869 23.4375 53.8221C23.4375 54.0096 24.6562 56.7166 24.8203 56.9041C25.043 57.1619 25.4648 57.1737 25.6992 56.9393C25.793 56.8455 26.2266 56.1893 26.6602 55.4744C27.1055 54.7596 27.4922 54.1619 27.5273 54.1268C27.5742 54.1033 28.3242 54.244 29.2148 54.4315C31.8281 54.9822 31.8633 54.8885 30.457 51.5955C29.4727 49.3104 29.4141 49.2283 28.8867 49.5213Z" fill="white"/>
<path d="M9.73866 52.4276C8.37929 55.3221 8.32069 55.5682 8.80116 55.8377C9.0121 55.9432 10.6762 55.7323 12.1527 55.4159C12.3637 55.369 12.516 55.5682 13.2894 56.869C14.2152 58.451 14.4613 58.6737 14.9418 58.3573C15.1293 58.2284 17.2269 53.9627 17.2269 53.7167C17.2269 53.6815 16.8402 53.6581 16.3715 53.6463C15.6801 53.6463 15.3754 53.576 14.766 53.2948C13.6996 52.7909 13.3363 52.451 12.4105 51.0682C11.7191 50.037 11.3441 49.6151 11.098 49.6151C11.0629 49.6151 10.4535 50.8807 9.73866 52.4276Z" fill="white"/>
</svg>
