<svg width="185" height="40" viewBox="0 0 185 40" fill="none" xmlns="http://www.w3.org/2000/svg">
<rect width="70.5882" height="40" fill="#FF0909"/>
<path d="M181.483 14.3768V14.2559L181.365 14.2302C180.166 13.9699 178.926 13.85 177.729 13.85C175.651 13.85 173.688 14.2492 172.24 15.1339C170.783 16.0232 169.85 17.4028 169.85 19.3351C169.85 21.0909 170.562 22.1868 171.598 22.9255C172.62 23.655 173.955 24.0327 175.189 24.3783L175.189 24.3784C176.195 24.6577 177.131 24.9204 177.817 25.341C178.158 25.5495 178.43 25.7931 178.618 26.0905C178.805 26.3864 178.913 26.7437 178.913 27.1889C178.913 27.8545 178.761 28.3817 178.502 28.7999C178.244 29.2185 177.873 29.5369 177.422 29.776C176.515 30.2568 175.295 30.4105 174.063 30.4105C173.156 30.4105 172.226 30.3321 171.461 30.2338C171.038 30.1535 170.616 30.1135 170.323 30.0936L170.163 30.0827V30.2432V32.8215V32.9565L170.297 32.9707C171.427 33.0902 172.578 33.15 173.75 33.15C176.384 33.15 178.972 32.8124 180.907 31.9037C181.877 31.4485 182.688 30.8474 183.258 30.068C183.828 29.2869 184.15 28.3345 184.15 27.1889C184.15 25.1448 183.44 23.9271 182.399 23.1563C181.372 22.3958 180.038 22.0832 178.825 21.8068C177.84 21.5773 176.985 21.3685 176.373 21.0059C176.071 20.8267 175.835 20.6133 175.674 20.347C175.513 20.0813 175.421 19.7533 175.421 19.3351C175.421 18.7771 175.542 18.3523 175.745 18.0264C175.948 17.7007 176.239 17.4634 176.596 17.291C177.318 16.9428 178.292 16.8671 179.292 16.8671C179.643 16.8671 179.995 16.877 180.339 16.8869L180.373 16.8878C180.704 16.8974 181.028 16.9068 181.333 16.9068H181.483V16.7568V14.3768Z" fill="black" stroke="black" stroke-width="0.3"/>
<path d="M151.168 14.2971V14.1471H151.018H145.727H145.577V14.2971V33V33.15H145.727H151.018H151.168V33V14.2971ZM148.403 5.85C147.525 5.85 146.785 6.14526 146.264 6.66314C145.744 7.18098 145.453 7.9106 145.453 8.75882C145.453 9.61696 145.743 10.3469 146.264 10.8625C146.785 11.378 147.525 11.6676 148.403 11.6676C149.232 11.6676 149.951 11.3765 150.463 10.8617C150.975 10.3468 151.271 9.61765 151.271 8.75882C151.271 7.90991 150.975 7.18108 150.463 6.66399C149.951 6.14684 149.232 5.85 148.403 5.85Z" fill="black" stroke="black" stroke-width="0.3"/>
<path d="M124.088 36L124.088 36.15H124.238H129.509H129.659L129.659 36L129.659 29.8382H131.053C132.707 29.8382 135.309 29.6426 137.502 28.5618C138.6 28.0203 139.601 27.2545 140.326 26.1761C141.053 25.0967 141.497 23.7132 141.497 21.9471C141.497 20.0236 141.128 18.5486 140.51 17.4196C139.892 16.2895 139.029 15.5146 138.055 14.9851C136.116 13.9303 133.738 13.85 131.98 13.85H131.978H131.976H131.974H131.972H131.97H131.968H131.966H131.964H131.962H131.96H131.958H131.956H131.954H131.953H131.951H131.949H131.947H131.945H131.943H131.941H131.939H131.937H131.935H131.933H131.931H131.93H131.928H131.926H131.924H131.922H131.92H131.918H131.916H131.914H131.912H131.91H131.908H131.907H131.905H131.903H131.901H131.899H131.897H131.895H131.893H131.891H131.889H131.887H131.886H131.884H131.882H131.88H131.878H131.876H131.874H131.872H131.87H131.868H131.866H131.865H131.863H131.861H131.859H131.857H131.855H131.853H131.851H131.849H131.847H131.846H131.844H131.842H131.84H131.838H131.836H131.834H131.832H131.83H131.829H131.827H131.825H131.823H131.821H131.819H131.817H131.815H131.813H131.812H131.81H131.808H131.806H131.804H131.802H131.8H131.798H131.796H131.795H131.793H131.791H131.789H131.787H131.785H131.783H131.781H131.779H131.778H131.776H131.774H131.772H131.77H131.768H131.766H131.764H131.763H131.761H131.759H131.757H131.755H131.753H131.751H131.749H131.748H131.746H131.744H131.742H131.74H131.738H131.736H131.734H131.733H131.731H131.729H131.727H131.725H131.723H131.721H131.72H131.718H131.716H131.714H131.712H131.71H131.708H131.706H131.705H131.703H131.701H131.699H131.697H131.695H131.693H131.692H131.69H131.688H131.686H131.684H131.682H131.68H131.679H131.677H131.675H131.673H131.671H131.669H131.667H131.666H131.664H131.662H131.66H131.658H131.656H131.655H131.653H131.651H131.649H131.647H131.645H131.643H131.642H131.64H131.638H131.636H131.634H131.632H131.631H131.629H131.627H131.625H131.623H131.621H131.619H131.618H131.616H131.614H131.612H131.61H131.608H131.607H131.605H131.603H131.601H131.599H131.597H131.596H131.594H131.592H131.59H131.588H131.586H131.585H131.583H131.581H131.579H131.577H131.575H131.574H131.572H131.57H131.568H131.566H131.564H131.563H131.561H131.559H131.557H131.555H131.554H131.552H131.55H131.548H131.546H131.544H131.543H131.541H131.539H131.537H131.535H131.534H131.532H131.53H131.528H131.526H131.524H131.523H131.521H131.519H131.517H131.515H131.514H131.512H131.51H131.508H131.506H131.504H131.503H131.501H131.499H131.497H131.495H131.494H131.492H131.49H131.488H131.486H131.485H131.483H131.481H131.479H131.477H131.476H131.474H131.472H131.47H131.468H131.467H131.465H131.463H131.461H131.459H131.458H131.456H131.454H131.452H131.45H131.449H131.447H131.445H131.443H131.441H131.44H131.438H131.436H131.434H131.432H131.431H131.429H131.427H131.425H131.423H131.422H131.42H131.418H131.416H131.415H131.413H131.411H131.409H131.407H131.406H131.404H131.402H131.4H131.398H131.397H131.395H131.393H131.391H131.39H131.388H131.386H131.384H131.382H131.381H131.379H131.377H131.375H131.374H131.372H131.37H131.368H131.366H131.365H131.363H131.361H131.359H131.358H131.356H131.354H131.352H131.351H131.349H131.347H131.345H131.343H131.342H131.34H131.338H131.336H131.335H131.333H131.331H131.329H131.328H131.326H131.324H131.322H131.321H131.319H131.317H131.315H131.313H131.312H131.31H131.308H131.306H131.305H131.303H131.301H131.299H131.298H131.296H131.294H131.292H131.291H131.289H131.287H131.285H131.284H131.282H131.28H131.278H131.277H131.275H131.273H131.271H131.27H131.268H131.266H131.264H131.263H131.261H131.259H131.257H131.256H131.254H131.252H131.25H131.249H131.247H131.245H131.243H131.242H131.24H131.238H131.236H131.235H131.233H131.231H131.23H131.228H131.226H131.224H131.223H131.221H131.219H131.217H131.216H131.214H131.212H131.21H131.209H131.207H131.205H131.204H131.202H131.2H131.198H131.197H131.195H131.193H131.191H131.19H131.188H131.186H131.185H131.183H131.181H131.179H131.178H131.176H131.174H131.172H131.171H131.169H131.167H131.166H131.164H131.162H131.16H131.159H131.157H131.155H131.154H131.152H131.15H131.148H131.147H131.145H131.143H131.142H131.14H131.138H131.136H131.135H131.133H131.131H131.13H131.128H131.126H131.124H131.123H131.121H131.119H131.118H131.116H131.114H131.112H131.111H131.109H131.107H131.106H131.104H131.102H131.101H131.099H131.097H131.095H131.094H131.092H131.09H131.089H131.087H131.085H131.084H131.082H131.08H131.078H131.077H131.075H131.073H131.072H131.07H131.068H131.067H131.065H131.063H131.062H131.06H131.058H131.056H131.055H131.053H124.238H124.088L124.088 14L124.088 36ZM130.497 27.2324H129.659V16.5176H130.497H130.498H130.499H130.499H130.5H130.501H130.502H130.502H130.503H130.504H130.504H130.505H130.506H130.507H130.507H130.508H130.509H130.51H130.51H130.511H130.512H130.512H130.513H130.514H130.515H130.515H130.516H130.517H130.518H130.518H130.519H130.52H130.521H130.521H130.522H130.523H130.524H130.524H130.525H130.526H130.526H130.527H130.528H130.529H130.529H130.53H130.531H130.532H130.532H130.533H130.534H130.535H130.535H130.536H130.537H130.538H130.538H130.539H130.54H130.541H130.541H130.542H130.543H130.544H130.544H130.545H130.546H130.547H130.547H130.548H130.549H130.55H130.55H130.551H130.552H130.553H130.553H130.554H130.555H130.556H130.556H130.557H130.558H130.559H130.559H130.56H130.561H130.562H130.562H130.563H130.564H130.565H130.566H130.566H130.567H130.568H130.569H130.569H130.57H130.571H130.572H130.572H130.573H130.574H130.575H130.575H130.576H130.577H130.578H130.578H130.579H130.58H130.581H130.582H130.582H130.583H130.584H130.585H130.585H130.586H130.587H130.588H130.588H130.589H130.59H130.591H130.592H130.592H130.593H130.594H130.595H130.595H130.596H130.597H130.598H130.598H130.599H130.6H130.601H130.602H130.602H130.603H130.604H130.605H130.605H130.606H130.607H130.608H130.608H130.609H130.61H130.611H130.612H130.612H130.613H130.614H130.615H130.615H130.616H130.617H130.618H130.619H130.619H130.62H130.621H130.622H130.622H130.623H130.624H130.625H130.626H130.626H130.627H130.628H130.629H130.629H130.63H130.631H130.632H130.633H130.633H130.634H130.635H130.636H130.636H130.637H130.638H130.639H130.64H130.64H130.641H130.642H130.643H130.643H130.644H130.645H130.646H130.647H130.647H130.648H130.649H130.65H130.65H130.651H130.652H130.653H130.654H130.654H130.655H130.656H130.657H130.658H130.658H130.659H130.66H130.661H130.661H130.662H130.663H130.664H130.665H130.665H130.666H130.667H130.668H130.668H130.669H130.67H130.671H130.672H130.672H130.673H130.674H130.675H130.676H130.676H130.677H130.678H130.679H130.679H130.68H130.681H130.682H130.683H130.683H130.684H130.685H130.686H130.686H130.687H130.688H130.689H130.69H130.69H130.691H130.692H130.693H130.694H130.694H130.695H130.696H130.697H130.697H130.698H130.699H130.7H130.701H130.701H130.702H130.703H130.704H130.705H130.705H130.706H130.707H130.708H130.708H130.709H130.71H130.711H130.712H130.712H130.713H130.714H130.715H130.716H130.716H130.717H130.718H130.719H130.719H130.72H130.721H130.722H130.723H130.723H130.724H130.725H130.726H130.726H130.727H130.728H130.729H130.73H130.73H130.731H130.732H130.733H130.734H130.734H130.735H130.736H130.737H130.737H130.738H130.739H130.74H130.741H130.741H130.742H130.743H130.744H130.744H130.745H130.746H130.747H130.748H130.748H130.749H130.75H130.751H130.751H130.752H130.753H130.754H130.755H130.755H130.756H130.757H130.758H130.758H130.759H130.76H130.761H130.762H130.762H130.763H130.764H130.765H130.765H130.766H130.767H130.768H130.769H130.769H130.77H130.771H130.772H130.772H130.773H130.774H130.775H130.776H130.776H130.777H130.778H130.779H130.779H130.78H130.781H130.782H130.782H130.783H130.784H130.785H130.786H130.786H130.787H130.788H130.789H130.789H130.79H130.791H130.792H130.792H130.793H130.794H130.795H130.796H130.796H130.797H130.798H130.799H130.799H130.8H130.801H130.802H130.802H130.803H130.804H130.805H130.806H130.806H130.807H130.808H130.809H130.809H130.81H130.811H130.812H130.812H130.813H130.814H130.815H130.815H130.816H130.817H130.818H130.818H130.819H130.82H130.821H130.822H130.822H130.823H130.824H130.825H130.825H130.826H130.827H130.828H130.828H130.829H130.83H130.831H130.831H130.832H130.833H130.834H130.834H130.835H130.836H130.837H130.837H130.838H130.839H130.84H130.84H130.841H130.842H130.843H130.843H130.844H130.845H130.846H130.846H130.847H130.848H130.849H130.849H130.85H130.851H130.852H130.852H130.853H130.854H130.855H130.855H130.856H130.857H130.858H130.858H130.859H130.86H130.861H130.861H130.862H130.863H130.863H130.864H130.865H130.866H130.866H130.867H130.868H130.869H130.869H130.87H130.871H130.872H130.872H130.873H130.874H130.875H130.875H130.876H130.877H130.877H130.878H130.879H130.88H130.88H130.881H130.882H130.883H130.883H130.884H130.885H130.885H130.886H130.887H130.888H130.888C132.057 16.5176 133.349 16.5573 134.353 17.243C135.343 17.9194 136.091 19.2555 136.091 21.9471C136.091 24.4847 135.262 25.7872 134.177 26.4678C133.078 27.158 131.682 27.2324 130.497 27.2324Z" fill="black" stroke="black" stroke-width="0.3"/>
<path d="M103.088 36L103.088 36.15H103.238H108.509H108.659L108.659 36L108.659 29.8382H110.053C111.707 29.8382 114.309 29.6426 116.502 28.5618C117.6 28.0203 118.601 27.2545 119.326 26.1761C120.053 25.0967 120.497 23.7132 120.497 21.9471C120.497 20.0236 120.128 18.5486 119.51 17.4196C118.892 16.2895 118.029 15.5146 117.055 14.9851C115.116 13.9303 112.738 13.85 110.98 13.85H110.978H110.976H110.974H110.972H110.97H110.968H110.966H110.964H110.962H110.96H110.958H110.956H110.954H110.953H110.951H110.949H110.947H110.945H110.943H110.941H110.939H110.937H110.935H110.933H110.931H110.93H110.928H110.926H110.924H110.922H110.92H110.918H110.916H110.914H110.912H110.91H110.908H110.907H110.905H110.903H110.901H110.899H110.897H110.895H110.893H110.891H110.889H110.887H110.886H110.884H110.882H110.88H110.878H110.876H110.874H110.872H110.87H110.868H110.866H110.865H110.863H110.861H110.859H110.857H110.855H110.853H110.851H110.849H110.847H110.846H110.844H110.842H110.84H110.838H110.836H110.834H110.832H110.83H110.829H110.827H110.825H110.823H110.821H110.819H110.817H110.815H110.813H110.812H110.81H110.808H110.806H110.804H110.802H110.8H110.798H110.796H110.795H110.793H110.791H110.789H110.787H110.785H110.783H110.781H110.779H110.778H110.776H110.774H110.772H110.77H110.768H110.766H110.764H110.763H110.761H110.759H110.757H110.755H110.753H110.751H110.749H110.748H110.746H110.744H110.742H110.74H110.738H110.736H110.734H110.733H110.731H110.729H110.727H110.725H110.723H110.721H110.72H110.718H110.716H110.714H110.712H110.71H110.708H110.706H110.705H110.703H110.701H110.699H110.697H110.695H110.693H110.692H110.69H110.688H110.686H110.684H110.682H110.68H110.679H110.677H110.675H110.673H110.671H110.669H110.667H110.666H110.664H110.662H110.66H110.658H110.656H110.655H110.653H110.651H110.649H110.647H110.645H110.643H110.642H110.64H110.638H110.636H110.634H110.632H110.631H110.629H110.627H110.625H110.623H110.621H110.619H110.618H110.616H110.614H110.612H110.61H110.608H110.607H110.605H110.603H110.601H110.599H110.597H110.596H110.594H110.592H110.59H110.588H110.586H110.585H110.583H110.581H110.579H110.577H110.575H110.574H110.572H110.57H110.568H110.566H110.564H110.563H110.561H110.559H110.557H110.555H110.554H110.552H110.55H110.548H110.546H110.544H110.543H110.541H110.539H110.537H110.535H110.534H110.532H110.53H110.528H110.526H110.524H110.523H110.521H110.519H110.517H110.515H110.514H110.512H110.51H110.508H110.506H110.504H110.503H110.501H110.499H110.497H110.495H110.494H110.492H110.49H110.488H110.486H110.485H110.483H110.481H110.479H110.477H110.476H110.474H110.472H110.47H110.468H110.467H110.465H110.463H110.461H110.459H110.458H110.456H110.454H110.452H110.45H110.449H110.447H110.445H110.443H110.441H110.44H110.438H110.436H110.434H110.432H110.431H110.429H110.427H110.425H110.423H110.422H110.42H110.418H110.416H110.415H110.413H110.411H110.409H110.407H110.406H110.404H110.402H110.4H110.398H110.397H110.395H110.393H110.391H110.39H110.388H110.386H110.384H110.382H110.381H110.379H110.377H110.375H110.374H110.372H110.37H110.368H110.366H110.365H110.363H110.361H110.359H110.358H110.356H110.354H110.352H110.351H110.349H110.347H110.345H110.343H110.342H110.34H110.338H110.336H110.335H110.333H110.331H110.329H110.328H110.326H110.324H110.322H110.321H110.319H110.317H110.315H110.313H110.312H110.31H110.308H110.306H110.305H110.303H110.301H110.299H110.298H110.296H110.294H110.292H110.291H110.289H110.287H110.285H110.284H110.282H110.28H110.278H110.277H110.275H110.273H110.271H110.27H110.268H110.266H110.264H110.263H110.261H110.259H110.257H110.256H110.254H110.252H110.25H110.249H110.247H110.245H110.243H110.242H110.24H110.238H110.236H110.235H110.233H110.231H110.23H110.228H110.226H110.224H110.223H110.221H110.219H110.217H110.216H110.214H110.212H110.21H110.209H110.207H110.205H110.204H110.202H110.2H110.198H110.197H110.195H110.193H110.191H110.19H110.188H110.186H110.185H110.183H110.181H110.179H110.178H110.176H110.174H110.172H110.171H110.169H110.167H110.166H110.164H110.162H110.16H110.159H110.157H110.155H110.154H110.152H110.15H110.148H110.147H110.145H110.143H110.142H110.14H110.138H110.136H110.135H110.133H110.131H110.13H110.128H110.126H110.124H110.123H110.121H110.119H110.118H110.116H110.114H110.112H110.111H110.109H110.107H110.106H110.104H110.102H110.101H110.099H110.097H110.095H110.094H110.092H110.09H110.089H110.087H110.085H110.084H110.082H110.08H110.078H110.077H110.075H110.073H110.072H110.07H110.068H110.067H110.065H110.063H110.062H110.06H110.058H110.056H110.055H110.053H103.238H103.088L103.088 14L103.088 36ZM109.497 27.2324H108.659V16.5176H109.497H109.498H109.499H109.499H109.5H109.501H109.502H109.502H109.503H109.504H109.504H109.505H109.506H109.507H109.507H109.508H109.509H109.51H109.51H109.511H109.512H109.512H109.513H109.514H109.515H109.515H109.516H109.517H109.518H109.518H109.519H109.52H109.521H109.521H109.522H109.523H109.524H109.524H109.525H109.526H109.526H109.527H109.528H109.529H109.529H109.53H109.531H109.532H109.532H109.533H109.534H109.535H109.535H109.536H109.537H109.538H109.538H109.539H109.54H109.541H109.541H109.542H109.543H109.544H109.544H109.545H109.546H109.547H109.547H109.548H109.549H109.55H109.55H109.551H109.552H109.553H109.553H109.554H109.555H109.556H109.556H109.557H109.558H109.559H109.559H109.56H109.561H109.562H109.562H109.563H109.564H109.565H109.566H109.566H109.567H109.568H109.569H109.569H109.57H109.571H109.572H109.572H109.573H109.574H109.575H109.575H109.576H109.577H109.578H109.578H109.579H109.58H109.581H109.582H109.582H109.583H109.584H109.585H109.585H109.586H109.587H109.588H109.588H109.589H109.59H109.591H109.592H109.592H109.593H109.594H109.595H109.595H109.596H109.597H109.598H109.598H109.599H109.6H109.601H109.602H109.602H109.603H109.604H109.605H109.605H109.606H109.607H109.608H109.608H109.609H109.61H109.611H109.612H109.612H109.613H109.614H109.615H109.615H109.616H109.617H109.618H109.619H109.619H109.62H109.621H109.622H109.622H109.623H109.624H109.625H109.626H109.626H109.627H109.628H109.629H109.629H109.63H109.631H109.632H109.633H109.633H109.634H109.635H109.636H109.636H109.637H109.638H109.639H109.64H109.64H109.641H109.642H109.643H109.643H109.644H109.645H109.646H109.647H109.647H109.648H109.649H109.65H109.65H109.651H109.652H109.653H109.654H109.654H109.655H109.656H109.657H109.658H109.658H109.659H109.66H109.661H109.661H109.662H109.663H109.664H109.665H109.665H109.666H109.667H109.668H109.668H109.669H109.67H109.671H109.672H109.672H109.673H109.674H109.675H109.676H109.676H109.677H109.678H109.679H109.679H109.68H109.681H109.682H109.683H109.683H109.684H109.685H109.686H109.686H109.687H109.688H109.689H109.69H109.69H109.691H109.692H109.693H109.694H109.694H109.695H109.696H109.697H109.697H109.698H109.699H109.7H109.701H109.701H109.702H109.703H109.704H109.705H109.705H109.706H109.707H109.708H109.708H109.709H109.71H109.711H109.712H109.712H109.713H109.714H109.715H109.716H109.716H109.717H109.718H109.719H109.719H109.72H109.721H109.722H109.723H109.723H109.724H109.725H109.726H109.726H109.727H109.728H109.729H109.73H109.73H109.731H109.732H109.733H109.734H109.734H109.735H109.736H109.737H109.737H109.738H109.739H109.74H109.741H109.741H109.742H109.743H109.744H109.744H109.745H109.746H109.747H109.748H109.748H109.749H109.75H109.751H109.751H109.752H109.753H109.754H109.755H109.755H109.756H109.757H109.758H109.758H109.759H109.76H109.761H109.762H109.762H109.763H109.764H109.765H109.765H109.766H109.767H109.768H109.769H109.769H109.77H109.771H109.772H109.772H109.773H109.774H109.775H109.776H109.776H109.777H109.778H109.779H109.779H109.78H109.781H109.782H109.782H109.783H109.784H109.785H109.786H109.786H109.787H109.788H109.789H109.789H109.79H109.791H109.792H109.792H109.793H109.794H109.795H109.796H109.796H109.797H109.798H109.799H109.799H109.8H109.801H109.802H109.802H109.803H109.804H109.805H109.806H109.806H109.807H109.808H109.809H109.809H109.81H109.811H109.812H109.812H109.813H109.814H109.815H109.815H109.816H109.817H109.818H109.818H109.819H109.82H109.821H109.822H109.822H109.823H109.824H109.825H109.825H109.826H109.827H109.828H109.828H109.829H109.83H109.831H109.831H109.832H109.833H109.834H109.834H109.835H109.836H109.837H109.837H109.838H109.839H109.84H109.84H109.841H109.842H109.843H109.843H109.844H109.845H109.846H109.846H109.847H109.848H109.849H109.849H109.85H109.851H109.852H109.852H109.853H109.854H109.855H109.855H109.856H109.857H109.858H109.858H109.859H109.86H109.861H109.861H109.862H109.863H109.863H109.864H109.865H109.866H109.866H109.867H109.868H109.869H109.869H109.87H109.871H109.872H109.872H109.873H109.874H109.875H109.875H109.876H109.877H109.877H109.878H109.879H109.88H109.88H109.881H109.882H109.883H109.883H109.884H109.885H109.885H109.886H109.887H109.888H109.888C111.057 16.5176 112.349 16.5573 113.353 17.243C114.343 17.9194 115.091 19.2555 115.091 21.9471C115.091 24.4847 114.262 25.7872 113.177 26.4678C112.078 27.158 110.682 27.2324 109.497 27.2324Z" fill="black" stroke="black" stroke-width="0.3"/>
<path d="M50.85 36V36.15H51H55.2706H55.4206V36V29.8382H56.8147C58.4688 29.8382 61.0703 29.6426 63.2634 28.5618C64.362 28.0203 65.3625 27.2545 66.0881 26.1761C66.8142 25.0967 67.2588 23.7132 67.2588 21.9471C67.2588 20.0236 66.8897 18.5486 66.2718 17.4196C65.6533 16.2895 64.7902 15.5146 63.8169 14.9851C61.8778 13.9303 59.5 13.85 57.7412 13.85H57.7392H57.7373H57.7354H57.7335H57.7315H57.7296H57.7277H57.7257H57.7238H57.7219H57.72H57.718H57.7161H57.7142H57.7123H57.7104H57.7084H57.7065H57.7046H57.7027H57.7007H57.6988H57.6969H57.695H57.6931H57.6911H57.6892H57.6873H57.6854H57.6835H57.6816H57.6797H57.6777H57.6758H57.6739H57.672H57.6701H57.6682H57.6663H57.6643H57.6624H57.6605H57.6586H57.6567H57.6548H57.6529H57.651H57.6491H57.6472H57.6453H57.6433H57.6414H57.6395H57.6376H57.6357H57.6338H57.6319H57.63H57.6281H57.6262H57.6243H57.6224H57.6205H57.6186H57.6167H57.6148H57.6129H57.611H57.6091H57.6072H57.6053H57.6034H57.6015H57.5996H57.5977H57.5958H57.5939H57.5921H57.5902H57.5883H57.5864H57.5845H57.5826H57.5807H57.5788H57.5769H57.575H57.5731H57.5713H57.5694H57.5675H57.5656H57.5637H57.5618H57.5599H57.5581H57.5562H57.5543H57.5524H57.5505H57.5486H57.5468H57.5449H57.543H57.5411H57.5392H57.5373H57.5355H57.5336H57.5317H57.5298H57.528H57.5261H57.5242H57.5223H57.5204H57.5186H57.5167H57.5148H57.5129H57.5111H57.5092H57.5073H57.5055H57.5036H57.5017H57.4998H57.498H57.4961H57.4942H57.4924H57.4905H57.4886H57.4868H57.4849H57.483H57.4812H57.4793H57.4774H57.4756H57.4737H57.4718H57.47H57.4681H57.4663H57.4644H57.4625H57.4607H57.4588H57.457H57.4551H57.4532H57.4514H57.4495H57.4477H57.4458H57.4439H57.4421H57.4402H57.4384H57.4365H57.4347H57.4328H57.431H57.4291H57.4273H57.4254H57.4236H57.4217H57.4199H57.418H57.4162H57.4143H57.4125H57.4106H57.4088H57.4069H57.4051H57.4032H57.4014H57.3995H57.3977H57.3958H57.394H57.3922H57.3903H57.3885H57.3866H57.3848H57.383H57.3811H57.3793H57.3774H57.3756H57.3738H57.3719H57.3701H57.3682H57.3664H57.3646H57.3627H57.3609H57.3591H57.3572H57.3554H57.3536H57.3517H57.3499H57.3481H57.3462H57.3444H57.3426H57.3407H57.3389H57.3371H57.3353H57.3334H57.3316H57.3298H57.3279H57.3261H57.3243H57.3225H57.3206H57.3188H57.317H57.3152H57.3133H57.3115H57.3097H57.3079H57.3061H57.3042H57.3024H57.3006H57.2988H57.297H57.2951H57.2933H57.2915H57.2897H57.2879H57.2861H57.2842H57.2824H57.2806H57.2788H57.277H57.2752H57.2734H57.2716H57.2697H57.2679H57.2661H57.2643H57.2625H57.2607H57.2589H57.2571H57.2553H57.2535H57.2516H57.2498H57.248H57.2462H57.2444H57.2426H57.2408H57.239H57.2372H57.2354H57.2336H57.2318H57.23H57.2282H57.2264H57.2246H57.2228H57.221H57.2192H57.2174H57.2156H57.2138H57.212H57.2102H57.2084H57.2066H57.2048H57.203H57.2012H57.1995H57.1977H57.1959H57.1941H57.1923H57.1905H57.1887H57.1869H57.1851H57.1833H57.1815H57.1798H57.178H57.1762H57.1744H57.1726H57.1708H57.169H57.1673H57.1655H57.1637H57.1619H57.1601H57.1583H57.1566H57.1548H57.153H57.1512H57.1494H57.1477H57.1459H57.1441H57.1423H57.1405H57.1388H57.137H57.1352H57.1334H57.1317H57.1299H57.1281H57.1263H57.1246H57.1228H57.121H57.1192H57.1175H57.1157H57.1139H57.1122H57.1104H57.1086H57.1069H57.1051H57.1033H57.1016H57.0998H57.098H57.0963H57.0945H57.0927H57.091H57.0892H57.0874H57.0857H57.0839H57.0821H57.0804H57.0786H57.0769H57.0751H57.0733H57.0716H57.0698H57.0681H57.0663H57.0645H57.0628H57.061H57.0593H57.0575H57.0558H57.054H57.0523H57.0505H57.0487H57.047H57.0452H57.0435H57.0417H57.04H57.0382H57.0365H57.0347H57.033H57.0312H57.0295H57.0277H57.026H57.0243H57.0225H57.0208H57.019H57.0173H57.0155H57.0138H57.012H57.0103H57.0086H57.0068H57.0051H57.0033H57.0016H56.9999H56.9981H56.9964H56.9946H56.9929H56.9912H56.9894H56.9877H56.9859H56.9842H56.9825H56.9807H56.979H56.9773H56.9755H56.9738H56.9721H56.9703H56.9686H56.9669H56.9652H56.9634H56.9617H56.96H56.9582H56.9565H56.9548H56.953H56.9513H56.9496H56.9479H56.9461H56.9444H56.9427H56.941H56.9392H56.9375H56.9358H56.9341H56.9324H56.9306H56.9289H56.9272H56.9255H56.9238H56.922H56.9203H56.9186H56.9169H56.9152H56.9135H56.9117H56.91H56.9083H56.9066H56.9049H56.9032H56.9015H56.8997H56.898H56.8963H56.8946H56.8929H56.8912H56.8895H56.8878H56.8861H56.8843H56.8826H56.8809H56.8792H56.8775H56.8758H56.8741H56.8724H56.8707H56.869H56.8673H56.8656H56.8639H56.8622H56.8605H56.8588H56.8571H56.8554H56.8537H56.852H56.8503H56.8486H56.8469H56.8452H56.8435H56.8418H56.8401H56.8384H56.8367H56.835H56.8333H56.8316H56.8299H56.8282H56.8265H56.8248H56.8232H56.8215H56.8198H56.8181H56.8164H56.8147H51H50.85V14V36ZM56.2588 27.2324H55.4206V16.5176H56.2588H56.2595H56.2603H56.261H56.2617H56.2624H56.2632H56.2639H56.2646H56.2654H56.2661H56.2668H56.2675H56.2683H56.269H56.2697H56.2705H56.2712H56.2719H56.2727H56.2734H56.2741H56.2749H56.2756H56.2763H56.2771H56.2778H56.2785H56.2793H56.28H56.2807H56.2815H56.2822H56.283H56.2837H56.2844H56.2852H56.2859H56.2867H56.2874H56.2881H56.2889H56.2896H56.2904H56.2911H56.2918H56.2926H56.2933H56.2941H56.2948H56.2956H56.2963H56.2971H56.2978H56.2985H56.2993H56.3H56.3008H56.3015H56.3023H56.303H56.3038H56.3045H56.3053H56.306H56.3068H56.3075H56.3083H56.309H56.3098H56.3105H56.3113H56.312H56.3128H56.3136H56.3143H56.3151H56.3158H56.3166H56.3173H56.3181H56.3188H56.3196H56.3203H56.3211H56.3219H56.3226H56.3234H56.3241H56.3249H56.3257H56.3264H56.3272H56.3279H56.3287H56.3294H56.3302H56.331H56.3317H56.3325H56.3333H56.334H56.3348H56.3355H56.3363H56.3371H56.3378H56.3386H56.3394H56.3401H56.3409H56.3416H56.3424H56.3432H56.3439H56.3447H56.3455H56.3462H56.347H56.3478H56.3485H56.3493H56.3501H56.3508H56.3516H56.3524H56.3531H56.3539H56.3547H56.3555H56.3562H56.357H56.3578H56.3585H56.3593H56.3601H56.3608H56.3616H56.3624H56.3632H56.3639H56.3647H56.3655H56.3662H56.367H56.3678H56.3686H56.3693H56.3701H56.3709H56.3717H56.3724H56.3732H56.374H56.3748H56.3755H56.3763H56.3771H56.3779H56.3786H56.3794H56.3802H56.381H56.3817H56.3825H56.3833H56.3841H56.3848H56.3856H56.3864H56.3872H56.3879H56.3887H56.3895H56.3903H56.3911H56.3918H56.3926H56.3934H56.3942H56.395H56.3957H56.3965H56.3973H56.3981H56.3988H56.3996H56.4004H56.4012H56.402H56.4027H56.4035H56.4043H56.4051H56.4059H56.4066H56.4074H56.4082H56.409H56.4098H56.4106H56.4113H56.4121H56.4129H56.4137H56.4145H56.4152H56.416H56.4168H56.4176H56.4184H56.4192H56.4199H56.4207H56.4215H56.4223H56.4231H56.4238H56.4246H56.4254H56.4262H56.427H56.4278H56.4285H56.4293H56.4301H56.4309H56.4317H56.4325H56.4332H56.434H56.4348H56.4356H56.4364H56.4372H56.4379H56.4387H56.4395H56.4403H56.4411H56.4419H56.4427H56.4434H56.4442H56.445H56.4458H56.4466H56.4474H56.4481H56.4489H56.4497H56.4505H56.4513H56.4521H56.4528H56.4536H56.4544H56.4552H56.456H56.4568H56.4575H56.4583H56.4591H56.4599H56.4607H56.4615H56.4623H56.463H56.4638H56.4646H56.4654H56.4662H56.467H56.4677H56.4685H56.4693H56.4701H56.4709H56.4717H56.4724H56.4732H56.474H56.4748H56.4756H56.4764H56.4771H56.4779H56.4787H56.4795H56.4803H56.4811H56.4818H56.4826H56.4834H56.4842H56.485H56.4858H56.4865H56.4873H56.4881H56.4889H56.4897H56.4905H56.4912H56.492H56.4928H56.4936H56.4944H56.4951H56.4959H56.4967H56.4975H56.4983H56.499H56.4998H56.5006H56.5014H56.5022H56.503H56.5037H56.5045H56.5053H56.5061H56.5069H56.5076H56.5084H56.5092H56.51H56.5108H56.5115H56.5123H56.5131H56.5139H56.5146H56.5154H56.5162H56.517H56.5178H56.5185H56.5193H56.5201H56.5209H56.5217H56.5224H56.5232H56.524H56.5248H56.5255H56.5263H56.5271H56.5279H56.5286H56.5294H56.5302H56.531H56.5317H56.5325H56.5333H56.5341H56.5348H56.5356H56.5364H56.5372H56.5379H56.5387H56.5395H56.5403H56.541H56.5418H56.5426H56.5433H56.5441H56.5449H56.5457H56.5464H56.5472H56.548H56.5487H56.5495H56.5503H56.5511H56.5518H56.5526H56.5534H56.5541H56.5549H56.5557H56.5564H56.5572H56.558H56.5587H56.5595H56.5603H56.561H56.5618H56.5626H56.5633H56.5641H56.5649H56.5656H56.5664H56.5672H56.5679H56.5687H56.5695H56.5702H56.571H56.5718H56.5725H56.5733H56.574H56.5748H56.5756H56.5763H56.5771H56.5779H56.5786H56.5794H56.5801H56.5809H56.5817H56.5824H56.5832H56.5839H56.5847H56.5854H56.5862H56.587H56.5877H56.5885H56.5892H56.59H56.5907H56.5915H56.5923H56.593H56.5938H56.5945H56.5953H56.596H56.5968H56.5975H56.5983H56.599H56.5998H56.6005H56.6013H56.602H56.6028H56.6035H56.6043H56.605H56.6058H56.6065H56.6073H56.608H56.6088H56.6095H56.6103H56.611H56.6118H56.6125H56.6133H56.614H56.6147H56.6155H56.6162H56.617H56.6177H56.6185H56.6192H56.6199H56.6207H56.6214H56.6222H56.6229H56.6237H56.6244H56.6251H56.6259H56.6266H56.6273H56.6281H56.6288H56.6296H56.6303H56.631H56.6318H56.6325H56.6332H56.634H56.6347H56.6354H56.6362H56.6369H56.6376H56.6384H56.6391H56.6398H56.6406H56.6413H56.642H56.6427H56.6435H56.6442H56.6449H56.6456H56.6464H56.6471H56.6478H56.6486H56.6493H56.65C57.8188 16.5176 59.1104 16.5573 60.1143 17.243C61.1046 17.9194 61.8529 19.2555 61.8529 21.9471C61.8529 24.4847 61.0235 25.7872 59.939 26.4678C58.8391 27.158 57.4435 27.2324 56.2588 27.2324Z" fill="white" stroke="white" stroke-width="0.3"/>
<path d="M99.1677 14.2971V14.1471H99.0177H93.7266H93.5766V14.2971V33V33.15H93.7266H99.0177H99.1677V33V14.2971ZM96.403 5.85C95.5246 5.85 94.7848 6.14526 94.2642 6.66314C93.7436 7.18098 93.453 7.9106 93.453 8.75882C93.453 9.61696 93.7433 10.3469 94.2644 10.8625C94.7854 11.378 95.5253 11.6676 96.403 11.6676C97.2316 11.6676 97.9506 11.3765 98.4627 10.8617C98.9748 10.3468 99.2707 9.61765 99.2707 8.75882C99.2707 7.90991 98.9746 7.18108 98.463 6.66399C97.9513 6.14684 97.2324 5.85 96.403 5.85Z" fill="black" stroke="black" stroke-width="0.3"/>
<path d="M79.5736 33.1294H79.7236V32.9794V22.2647H83.9206V32.9794V33.1294H84.0706H89.4853H89.6353V32.9794V13.5882V13.4382H89.4853H84.0706H83.9206V13.5882V19.2676H79.7236V3V2.85H79.5736H74.1177H73.9677V3V32.9794V33.1294H74.1177H79.5736Z" fill="black" stroke="black" stroke-width="0.3"/>
<path d="M155.327 13.85L155.177 13.85V14V33V33.15H155.327H165.633H165.783V33V30.9619V30.8119H165.633H160.924V24.2295H165.633H165.783V24.0795V22.5383V22.3883H165.633H160.924V15.5707H165.633H165.783V15.4207V14V13.8501L165.633 13.85L155.327 13.85Z" fill="black" stroke="black" stroke-width="0.3"/>
<path d="M46.5378 14.3083V14.1583H46.3878H41.1229H40.9729L40.9729 14.3083L40.9729 33L40.9729 33.15H41.1229H46.3878H46.5378V33L46.5378 14.3083ZM43.7861 5.85C42.9115 5.85 42.1751 6.14584 41.657 6.66452C41.139 7.18308 40.85 7.91352 40.85 8.76256C40.85 9.62151 41.1387 10.3523 41.6573 10.8686C42.1758 11.3849 42.9123 11.6751 43.7861 11.6751C44.611 11.6751 45.3267 11.3834 45.8363 10.8678C46.3459 10.3522 46.6402 9.6222 46.6402 8.76256C46.6402 7.91283 46.3457 7.18317 45.8366 6.66536C45.3274 6.14744 44.6118 5.85 43.7861 5.85Z" fill="white" stroke="white" stroke-width="0.3"/>
<path d="M3.85 8.87353V9.02353H4H11.1659V33V33.15H11.3159H16.7359H16.8859V33V9.02353H24.1961H24.3461V8.87353V5V4.85H24.1961H4H3.85V5V8.87353Z" fill="white" stroke="white" stroke-width="0.3"/>
<path d="M27.5721 33.15H27.7221L27.7221 33L27.7222 23.8731H28.814L33.6664 33.07L33.7086 33.15H33.7991H38H38.2576L38.1304 32.926L32.9591 23.8155C34.6227 23.2905 35.6341 21.4401 35.6341 18.4679C35.6341 17.495 35.4062 16.7131 35.0177 16.0896C34.6294 15.4665 34.0862 15.01 33.4681 14.6788C32.2365 14.0187 30.6965 13.85 29.4428 13.85H23H22.85L22.85 14L22.85 33L22.85 33.15H23H27.5721ZM29.5661 22.6342L27.7222 22.6342V16.7158H29.6658C30.3311 16.7158 30.9346 16.7635 31.3741 17.0586C31.7988 17.3436 32.1055 17.8869 32.1055 18.9731C32.1055 19.5442 32.1054 20.059 32.0641 20.514C32.0228 20.9691 31.9412 21.3518 31.7854 21.6608C31.6318 21.9655 31.4037 22.2037 31.0567 22.3688C30.7058 22.5358 30.2259 22.6314 29.5663 22.6342C29.5663 22.6342 29.5662 22.6342 29.5661 22.6342Z" fill="white" stroke="white" stroke-width="0.3"/>
</svg>
