<svg width="185" height="40" viewBox="0 0 185 40" fill="none" xmlns="http://www.w3.org/2000/svg">
<g clip-path="url(#clip0_3170_483)">
<path d="M70.5882 0H0V40H70.5882V0Z" fill="#FF0909"/>
<path d="M181.483 14.3769V14.256L181.365 14.2303C180.166 13.97 178.926 13.8501 177.729 13.8501C175.651 13.8501 173.688 14.2493 172.24 15.134C170.783 16.0233 169.85 17.4029 169.85 19.3352C169.85 21.091 170.562 22.1869 171.598 22.9256C172.62 23.6551 173.955 24.0328 175.189 24.3784C176.195 24.6577 177.131 24.9205 177.817 25.3411C178.158 25.5496 178.43 25.7932 178.618 26.0906C178.805 26.3865 178.913 26.7438 178.913 27.189C178.913 27.8546 178.761 28.3818 178.502 28.8C178.244 29.2186 177.873 29.537 177.422 29.7761C176.515 30.2569 175.295 30.4106 174.063 30.4106C173.156 30.4106 172.226 30.3322 171.461 30.2339C171.038 30.1536 170.616 30.1136 170.323 30.0937L170.163 30.0828V30.2433V32.8216V32.9566L170.297 32.9708C171.427 33.0903 172.578 33.1501 173.75 33.1501C176.384 33.1501 178.972 32.8125 180.907 31.9038C181.877 31.4486 182.688 30.8475 183.258 30.0681C183.828 29.287 184.15 28.3346 184.15 27.189C184.15 25.1449 183.44 23.9272 182.399 23.1564C181.372 22.3959 180.038 22.0833 178.825 21.8069C177.84 21.5774 176.985 21.3686 176.373 21.006C176.071 20.8268 175.835 20.6134 175.674 20.3471C175.513 20.0814 175.421 19.7534 175.421 19.3352C175.421 18.7772 175.542 18.3524 175.745 18.0265C175.948 17.7008 176.239 17.4635 176.596 17.2911C177.318 16.9429 178.292 16.8672 179.292 16.8672C179.643 16.8672 179.995 16.8771 180.339 16.887L180.373 16.8879C180.704 16.8975 181.028 16.9069 181.333 16.9069H181.483V16.7569V14.3769Z" fill="white" stroke="white" stroke-width="0.3"/>
<path d="M151.168 14.2972V14.1472H151.018H145.727H145.577V14.2972V33.0001V33.1501H145.727H151.018H151.168V33.0001V14.2972ZM148.403 5.8501C147.525 5.8501 146.785 6.14536 146.264 6.66324C145.744 7.18108 145.453 7.9107 145.453 8.75892C145.453 9.61706 145.743 10.347 146.264 10.8626C146.785 11.3781 147.525 11.6677 148.403 11.6677C149.232 11.6677 149.951 11.3766 150.463 10.8618C150.975 10.3469 151.271 9.61775 151.271 8.75892C151.271 7.91001 150.975 7.18118 150.463 6.66409C149.951 6.14694 149.232 5.8501 148.403 5.8501Z" fill="white" stroke="white" stroke-width="0.3"/>
<path d="M124.088 36.0001V36.1501H124.238H129.509H129.659V36.0001V29.8383H131.053C132.707 29.8383 135.309 29.6427 137.502 28.5619C138.6 28.0204 139.601 27.2546 140.326 26.1762C141.053 25.0968 141.497 23.7133 141.497 21.9472C141.497 20.0237 141.128 18.5487 140.51 17.4197C139.892 16.2896 139.029 15.5147 138.055 14.9852C136.116 13.9304 133.738 13.8501 131.98 13.8501H131.978H131.976H131.974H131.972H131.97H131.968H131.966H131.964H131.962H131.96H131.958H131.956H131.954H131.951H131.949H131.947H131.945H131.943H131.941H131.939H131.937H131.935H131.933H131.931H131.93H131.928H131.926H131.924H131.922H131.92H131.918H131.916H131.914H131.912H131.91H131.908H131.907H131.905H131.903H131.901H131.899H131.897H131.895H131.893H131.891H131.889H131.887H131.884H131.882H131.88H131.878H131.876H131.874H131.872H131.87H131.868H131.866H131.863H131.861H131.859H131.857H131.855H131.853H131.851H131.849H131.847H131.846H131.844H131.842H131.84H131.838H131.836H131.834H131.832H131.83H131.829H131.827H131.825H131.823H131.821H131.819H131.817H131.815H131.813H131.812H131.81H131.808H131.806H131.804H131.802H131.8H131.798H131.796H131.795H131.793H131.791H131.789H131.787H131.785H131.783H131.781H131.779H131.778H131.776H131.774H131.772H131.77H131.768H131.766H131.764H131.763H131.761H131.759H131.757H131.755H131.753H131.751H131.749H131.746H131.744H131.742H131.74H131.738H131.736H131.734H131.731H131.729H131.727H131.725H131.723H131.721H131.718H131.716H131.714H131.712H131.71H131.708H131.706H131.703H131.701H131.699H131.697H131.695H131.693H131.69H131.688H131.686H131.684H131.682H131.68H131.677H131.675H131.673H131.671H131.669H131.667H131.666H131.664H131.662H131.66H131.658H131.656H131.655H131.653H131.651H131.649H131.647H131.645H131.643H131.642H131.64H131.638H131.636H131.634H131.632H131.631H131.629H131.627H131.625H131.623H131.621H131.619H131.618H131.616H131.614H131.612H131.61H131.608H131.607H131.605H131.603H131.601H131.599H131.597H131.596H131.594H131.592H131.59H131.588H131.586H131.583H131.581H131.579H131.577H131.575H131.572H131.57H131.568H131.566H131.564H131.561H131.559H131.557H131.555H131.552H131.55H131.548H131.546H131.544H131.543H131.541H131.539H131.537H131.535H131.534H131.532H131.53H131.528H131.526H131.524H131.523H131.521H131.519H131.517H131.515H131.512H131.51H131.508H131.506H131.504H131.501H131.499H131.497H131.495H131.492H131.49H131.488H131.486H131.483H131.481H131.479H131.477H131.476H131.474H131.472H131.47H131.468H131.467H131.465H131.463H131.461H131.459H131.458H131.456H131.454H131.452H131.45H131.447H131.445H131.443H131.441H131.438H131.436H131.434H131.432H131.431H131.429H131.427H131.425H131.423H131.422H131.42H131.418H131.416H131.415H131.413H131.411H131.409H131.407H131.404H131.402H131.4H131.398H131.395H131.393H131.391H131.39H131.388H131.386H131.384H131.382H131.381H131.379H131.377H131.375H131.374H131.372H131.37H131.368H131.366H131.363H131.361H131.359H131.356H131.354H131.352H131.351H131.349H131.347H131.345H131.343H131.342H131.34H131.338H131.336H131.333H131.331H131.329H131.326H131.324H131.322H131.321H131.319H131.317H131.315H131.313H131.312H131.31H131.308H131.306H131.305H131.303H131.301H131.299H131.296H131.294H131.292H131.291H131.289H131.287H131.285H131.284H131.282H131.28H131.278H131.277H131.275H131.273H131.271H131.268H131.266H131.264H131.263H131.261H131.259H131.257H131.256H131.254H131.252H131.25H131.249H131.247H131.245H131.243H131.24H131.238H131.236H131.233H131.231H131.23H131.228H131.226H131.224H131.221H131.219H131.217H131.214H131.212H131.21H131.209H131.207H131.205H131.204H131.202H131.2H131.198H131.195H131.193H131.191H131.188H131.186H131.185H131.183H131.181H131.179H131.178H131.176H131.174H131.172H131.169H131.167H131.166H131.164H131.162H131.16H131.159H131.157H131.155H131.152H131.15H131.148H131.145H131.143H131.142H131.14H131.138H131.136H131.135H131.133H131.131H131.128H131.126H131.124H131.121H131.119H131.118H131.116H131.114H131.112H131.111H131.109H131.107H131.104H131.102H131.101H131.099H131.097H131.095H131.094H131.092H131.09H131.087H131.085H131.084H131.082H131.08H131.078H131.077H131.075H131.073H131.07H131.068H131.065H131.063H131.062H131.06H131.058H131.056H131.055H131.053H124.238H124.088V14.0001V36.0001ZM130.497 27.2325H129.659V16.5177H130.497H130.498H130.5H130.501H130.503H130.505H130.507H130.509H130.511H130.513H130.514H130.516H130.518H130.52H130.522H130.524H130.526H130.528H130.529H130.531H130.533H130.535H130.537H130.539H130.541H130.542H130.544H130.546H130.548H130.55H130.552H130.554H130.556H130.557H130.559H130.561H130.563H130.565H130.567H130.569H130.57H130.572H130.574H130.576H130.578H130.58H130.582H130.584H130.585H130.587H130.589H130.591H130.593H130.595H130.597H130.598H130.6H130.602H130.604H130.606H130.608H130.61H130.612H130.613H130.615H130.617H130.619H130.621H130.623H130.625H130.626H130.628H130.63H130.632H130.634H130.636H130.638H130.639H130.641H130.643H130.645H130.647H130.649H130.651H130.653H130.654H130.656H130.658H130.66H130.662H130.664H130.666H130.667H130.669H130.671H130.673H130.675H130.677H130.679H130.681H130.682H130.684H130.686H130.688H130.69H130.692H130.694H130.695H130.697H130.699H130.701H130.703H130.705H130.707H130.709H130.71H130.712H130.714H130.716H130.718H130.72H130.722H130.723H130.725H130.727H130.729H130.731H130.733H130.735H130.737H130.738H130.74H130.742H130.744H130.746H130.748H130.75H130.751H130.753H130.755H130.757H130.759H130.761H130.763H130.764H130.766H130.768H130.77H130.772H130.774H130.776H130.778H130.779H130.781H130.783H130.785H130.787H130.789H130.791H130.792H130.794H130.796H130.798H130.8H130.802H130.804H130.806H130.807H130.809H130.811H130.813H130.815H130.817H130.819H130.82H130.822H130.824H130.826H130.828H130.83H130.832H130.834H130.835H130.837H130.839H130.841H130.843H130.845H130.847H130.848H130.85H130.852H130.854H130.856H130.858H130.86H130.862H130.863H130.865H130.867H130.869H130.871H130.873H130.875H130.876H130.878H130.88H130.882H130.884H130.886H130.888C132.057 16.5177 133.349 16.5574 134.353 17.2431C135.343 17.9195 136.091 19.2556 136.091 21.9472C136.091 24.4848 135.262 25.7873 134.177 26.4679C133.078 27.1581 131.682 27.2325 130.497 27.2325Z" fill="white" stroke="white" stroke-width="0.3"/>
<path d="M103.088 36.0001V36.1501H103.238H108.509H108.659V36.0001V29.8383H110.053C111.707 29.8383 114.309 29.6427 116.502 28.5619C117.6 28.0204 118.601 27.2546 119.326 26.1762C120.053 25.0968 120.497 23.7133 120.497 21.9472C120.497 20.0237 120.128 18.5487 119.51 17.4197C118.892 16.2896 118.029 15.5147 117.055 14.9852C115.116 13.9304 112.738 13.8501 110.98 13.8501H110.978H110.976H110.974H110.972H110.97H110.968H110.966H110.964H110.962H110.96H110.958H110.956H110.954H110.951H110.949H110.947H110.945H110.943H110.941H110.939H110.937H110.935H110.933H110.931H110.928H110.926H110.924H110.922H110.92H110.918H110.916H110.914H110.912H110.91H110.908H110.905H110.903H110.901H110.899H110.897H110.895H110.893H110.891H110.889H110.887H110.884H110.882H110.88H110.878H110.876H110.874H110.872H110.87H110.868H110.866H110.863H110.861H110.859H110.857H110.855H110.853H110.851H110.849H110.847H110.844H110.842H110.84H110.838H110.836H110.834H110.832H110.83H110.827H110.825H110.823H110.821H110.819H110.817H110.815H110.813H110.812H110.81H110.808H110.806H110.804H110.802H110.8H110.798H110.796H110.793H110.791H110.789H110.787H110.785H110.783H110.781H110.779H110.776H110.774H110.772H110.77H110.768H110.766H110.764H110.761H110.759H110.757H110.755H110.753H110.751H110.749H110.746H110.744H110.742H110.74H110.738H110.736H110.734H110.731H110.729H110.727H110.725H110.723H110.721H110.718H110.716H110.714H110.712H110.71H110.708H110.706H110.703H110.701H110.699H110.697H110.695H110.693H110.69H110.688H110.686H110.684H110.682H110.68H110.677H110.675H110.673H110.671H110.669H110.667H110.664H110.662H110.66H110.658H110.656H110.653H110.651H110.649H110.647H110.645H110.643H110.64H110.638H110.636H110.634H110.632H110.631H110.629H110.627H110.625H110.623H110.621H110.619H110.618H110.616H110.614H110.612H110.61H110.608H110.605H110.603H110.601H110.599H110.597H110.594H110.592H110.59H110.588H110.586H110.583H110.581H110.579H110.577H110.575H110.572H110.57H110.568H110.566H110.564H110.561H110.559H110.557H110.555H110.552H110.55H110.548H110.546H110.544H110.541H110.539H110.537H110.535H110.534H110.532H110.53H110.528H110.526H110.524H110.521H110.519H110.517H110.515H110.512H110.51H110.508H110.506H110.504H110.501H110.499H110.497H110.495H110.492H110.49H110.488H110.486H110.483H110.481H110.479H110.477H110.474H110.472H110.47H110.468H110.465H110.463H110.461H110.459H110.456H110.454H110.452H110.45H110.447H110.445H110.443H110.441H110.438H110.436H110.434H110.432H110.429H110.427H110.425H110.423H110.42H110.418H110.416H110.413H110.411H110.409H110.407H110.404H110.402H110.4H110.398H110.395H110.393H110.391H110.388H110.386H110.384H110.382H110.381H110.379H110.377H110.375H110.372H110.37H110.368H110.366H110.363H110.361H110.359H110.356H110.354H110.352H110.349H110.347H110.345H110.343H110.34H110.338H110.336H110.333H110.331H110.329H110.326H110.324H110.322H110.319H110.317H110.315H110.313H110.312H110.31H110.308H110.306H110.303H110.301H110.299H110.298H110.296H110.294H110.292H110.289H110.287H110.285H110.284H110.282H110.28H110.278H110.275H110.273H110.271H110.27H110.268H110.266H110.264H110.261H110.259H110.257H110.256H110.254H110.252H110.25H110.247H110.245H110.243H110.24H110.238H110.236H110.233H110.231H110.228H110.226H110.224H110.221H110.219H110.217H110.214H110.212H110.21H110.207H110.205H110.202H110.2H110.198H110.195H110.193H110.191H110.188H110.186H110.183H110.181H110.179H110.176H110.174H110.172H110.169H110.167H110.164H110.162H110.16H110.159H110.157H110.155H110.152H110.15H110.148H110.145H110.143H110.14H110.138H110.136H110.133H110.131H110.128H110.126H110.124H110.121H110.119H110.118H110.116H110.114H110.112H110.109H110.107H110.104H110.102H110.099H110.097H110.095H110.092H110.09H110.087H110.085H110.082H110.08H110.078H110.075H110.073H110.07H110.068H110.065H110.063H110.062H110.06H110.058H110.056H110.053H103.238H103.088V14.0001V36.0001ZM109.497 27.2325H108.659V16.5177H109.497H109.499H109.501H109.503H109.505H109.507H109.509H109.511H109.513H109.515H109.517H109.519H109.521H109.523H109.525H109.527H109.529H109.531H109.533H109.535H109.537H109.539H109.541H109.543H109.545H109.547H109.549H109.551H109.553H109.555H109.557H109.559H109.561H109.563H109.565H109.567H109.569H109.571H109.573H109.575H109.577H109.579H109.581H109.583H109.585H109.587H109.589H109.591H109.593H109.595H109.597H109.599H109.601H109.603H109.605H109.607H109.609H109.611H109.613H109.615H109.617H109.619H109.621H109.623H109.625H109.627H109.629H109.631H109.632H109.634H109.636H109.638H109.64H109.642H109.644H109.646H109.648H109.65H109.652H109.654H109.656H109.658H109.66H109.662H109.664H109.666H109.668H109.67H109.672H109.674H109.676H109.678H109.68H109.682H109.684H109.686H109.688H109.69H109.692H109.694H109.696H109.698H109.7H109.702H109.704H109.706H109.708H109.71H109.712H109.714H109.716H109.718H109.72H109.722H109.724H109.726H109.728H109.73H109.732H109.734H109.736H109.738H109.74H109.742H109.744H109.746H109.748H109.75H109.752H109.754H109.756H109.757H109.759H109.761H109.763H109.765H109.767H109.769H109.771H109.773H109.775H109.777H109.779H109.781H109.783H109.785H109.787H109.789H109.791H109.793H109.795H109.797H109.799H109.801H109.803H109.805H109.807H109.809H109.811H109.813H109.815H109.817H109.819H109.821H109.823H109.825H109.827H109.829H109.831H109.833H109.835H109.837H109.839H109.841H109.843H109.845H109.847H109.849H109.851H109.853H109.855H109.857H109.859H109.861H109.863H109.865H109.867H109.869H109.871H109.873H109.875H109.877H109.879H109.881H109.882H109.884H109.886H109.888C111.057 16.5177 112.349 16.5574 113.353 17.2431C114.343 17.9195 115.091 19.2556 115.091 21.9472C115.091 24.4848 114.262 25.7873 113.177 26.4679C112.078 27.1581 110.682 27.2325 109.497 27.2325Z" fill="white" stroke="white" stroke-width="0.3"/>
<path d="M50.8496 36.0001V36.1501H50.9996H55.2702H55.4202V36.0001V29.8383H56.8143C58.4684 29.8383 61.0699 29.6427 63.263 28.5619C64.3616 28.0204 65.3621 27.2546 66.0877 26.1762C66.8138 25.0968 67.2584 23.7133 67.2584 21.9472C67.2584 20.0237 66.8893 18.5487 66.2714 17.4197C65.6529 16.2896 64.7898 15.5147 63.8165 14.9852C61.8774 13.9304 59.4996 13.8501 57.7408 13.8501H57.7388H57.7369H57.735H57.7331H57.7311H57.7292H57.7273H57.7253H57.7234H57.7215H57.7196H57.7176H57.7157H57.7138H57.7119H57.71H57.708H57.7061H57.7042H57.7023H57.7003H57.6984H57.6965H57.6946H57.6927H57.6907H57.6888H57.6869H57.685H57.6831H57.6812H57.6793H57.6773H57.6754H57.6735H57.6716H57.6697H57.6678H57.6659H57.6639H57.662H57.6601H57.6582H57.6563H57.6544H57.6525H57.6506H57.6487H57.6468H57.6449H57.6429H57.641H57.6391H57.6372H57.6353H57.6334H57.6315H57.6296H57.6277H57.6258H57.6239H57.622H57.6201H57.6182H57.6163H57.6144H57.6125H57.6106H57.6087H57.6068H57.6049H57.603H57.6011H57.5992H57.5973H57.5954H57.5935H57.5917H57.5898H57.5879H57.586H57.5841H57.5822H57.5803H57.5784H57.5765H57.5746H57.5727H57.5709H57.569H57.5671H57.5652H57.5633H57.5614H57.5595H57.5577H57.5558H57.5539H57.552H57.5501H57.5482H57.5464H57.5445H57.5426H57.5407H57.5388H57.5369H57.5351H57.5332H57.5313H57.5294H57.5276H57.5257H57.5238H57.5219H57.52H57.5182H57.5163H57.5144H57.5125H57.5107H57.5088H57.5069H57.5051H57.5032H57.5013H57.4994H57.4976H57.4957H57.4938H57.492H57.4901H57.4882H57.4864H57.4845H57.4826H57.4808H57.4789H57.477H57.4752H57.4733H57.4714H57.4696H57.4677H57.4659H57.464H57.4621H57.4603H57.4584H57.4566H57.4547H57.4528H57.451H57.4491H57.4473H57.4454H57.4435H57.4417H57.4398H57.438H57.4361H57.4343H57.4324H57.4306H57.4287H57.4269H57.425H57.4232H57.4213H57.4195H57.4176H57.4158H57.4139H57.4121H57.4102H57.4084H57.4065H57.4047H57.4028H57.401H57.3991H57.3973H57.3954H57.3936H57.3918H57.3899H57.3881H57.3862H57.3844H57.3826H57.3807H57.3789H57.377H57.3752H57.3734H57.3715H57.3697H57.3678H57.366H57.3642H57.3623H57.3605H57.3587H57.3568H57.355H57.3532H57.3513H57.3495H57.3477H57.3458H57.344H57.3422H57.3403H57.3385H57.3367H57.3349H57.333H57.3312H57.3294H57.3275H57.3257H57.3239H57.3221H57.3202H57.3184H57.3166H57.3148H57.3129H57.3111H57.3093H57.3075H57.3057H57.3038H57.302H57.3002H57.2984H57.2966H57.2947H57.2929H57.2911H57.2893H57.2875H57.2857H57.2838H57.282H57.2802H57.2784H57.2766H57.2748H57.273H57.2712H57.2693H57.2675H57.2657H57.2639H57.2621H57.2603H57.2585H57.2567H57.2549H57.2531H57.2512H57.2494H57.2476H57.2458H57.244H57.2422H57.2404H57.2386H57.2368H57.235H57.2332H57.2314H57.2296H57.2278H57.226H57.2242H57.2224H57.2206H57.2188H57.217H57.2152H57.2134H57.2116H57.2098H57.208H57.2062H57.2044H57.2026H57.2008H57.1991H57.1973H57.1955H57.1937H57.1919H57.1901H57.1883H57.1865H57.1847H57.1829H57.1811H57.1794H57.1776H57.1758H57.174H57.1722H57.1704H57.1686H57.1669H57.1651H57.1633H57.1615H57.1597H57.1579H57.1562H57.1544H57.1526H57.1508H57.149H57.1473H57.1455H57.1437H57.1419H57.1401H57.1384H57.1366H57.1348H57.133H57.1313H57.1295H57.1277H57.1259H57.1242H57.1224H57.1206H57.1188H57.1171H57.1153H57.1135H57.1118H57.11H57.1082H57.1065H57.1047H57.1029H57.1012H57.0994H57.0976H57.0959H57.0941H57.0923H57.0906H57.0888H57.087H57.0853H57.0835H57.0817H57.08H57.0782H57.0765H57.0747H57.0729H57.0712H57.0694H57.0677H57.0659H57.0641H57.0624H57.0606H57.0589H57.0571H57.0554H57.0536H57.0519H57.0501H57.0483H57.0466H57.0448H57.0431H57.0413H57.0396H57.0378H57.0361H57.0343H57.0326H57.0308H57.0291H57.0273H57.0256H57.0239H57.0221H57.0204H57.0186H57.0169H57.0151H57.0134H57.0116H57.0099H57.0082H57.0064H57.0047H57.0029H57.0012H56.9995H56.9977H56.996H56.9942H56.9925H56.9908H56.989H56.9873H56.9855H56.9838H56.9821H56.9803H56.9786H56.9769H56.9751H56.9734H56.9717H56.9699H56.9682H56.9665H56.9648H56.963H56.9613H56.9596H56.9578H56.9561H56.9544H56.9526H56.9509H56.9492H56.9475H56.9457H56.944H56.9423H56.9406H56.9388H56.9371H56.9354H56.9337H56.932H56.9302H56.9285H56.9268H56.9251H56.9234H56.9216H56.9199H56.9182H56.9165H56.9148H56.9131H56.9113H56.9096H56.9079H56.9062H56.9045H56.9028H56.9011H56.8993H56.8976H56.8959H56.8942H56.8925H56.8908H56.8891H56.8874H56.8857H56.8839H56.8822H56.8805H56.8788H56.8771H56.8754H56.8737H56.872H56.8703H56.8686H56.8669H56.8652H56.8635H56.8618H56.8601H56.8584H56.8567H56.855H56.8533H56.8516H56.8499H56.8482H56.8465H56.8448H56.8431H56.8414H56.8397H56.838H56.8363H56.8346H56.8329H56.8312H56.8295H56.8278H56.8261H56.8244H56.8228H56.8211H56.8194H56.8177H56.816H56.8143H50.9996H50.8496V14.0001V36.0001ZM56.2584 27.2325H55.4202V16.5177H56.2584H56.2599H56.2613H56.2628H56.2642H56.2657H56.2671H56.2686H56.2701H56.2715H56.273H56.2745H56.2759H56.2774H56.2789H56.2803H56.2818H56.2833H56.2848H56.2863H56.2877H56.2892H56.2907H56.2922H56.2937H56.2952H56.2967H56.2981H56.2996H56.3011H56.3026H56.3041H56.3056H56.3071H56.3086H56.3101H56.3116H56.3132H56.3147H56.3162H56.3177H56.3192H56.3207H56.3222H56.3237H56.3253H56.3268H56.3283H56.3298H56.3313H56.3329H56.3344H56.3359H56.3374H56.339H56.3405H56.342H56.3435H56.3451H56.3466H56.3481H56.3497H56.3512H56.3527H56.3543H56.3558H56.3574H56.3589H56.3604H56.362H56.3635H56.3651H56.3666H56.3682H56.3697H56.3713H56.3728H56.3744H56.3759H56.3775H56.379H56.3806H56.3821H56.3837H56.3852H56.3868H56.3883H56.3899H56.3914H56.393H56.3946H56.3961H56.3977H56.3992H56.4008H56.4023H56.4039H56.4055H56.407H56.4086H56.4102H56.4117H56.4133H56.4148H56.4164H56.418H56.4195H56.4211H56.4227H56.4242H56.4258H56.4274H56.4289H56.4305H56.4321H56.4336H56.4352H56.4368H56.4383H56.4399H56.4415H56.443H56.4446H56.4462H56.4477H56.4493H56.4509H56.4524H56.454H56.4556H56.4571H56.4587H56.4603H56.4619H56.4634H56.465H56.4666H56.4681H56.4697H56.4713H56.4728H56.4744H56.476H56.4775H56.4791H56.4807H56.4822H56.4838H56.4854H56.4869H56.4885H56.4901H56.4916H56.4932H56.4947H56.4963H56.4979H56.4994H56.501H56.5026H56.5041H56.5057H56.5072H56.5088H56.5104H56.5119H56.5135H56.515H56.5166H56.5181H56.5197H56.5213H56.5228H56.5244H56.5259H56.5275H56.529H56.5306H56.5321H56.5337H56.5352H56.5368H56.5383H56.5399H56.5414H56.5429H56.5445H56.546H56.5476H56.5491H56.5507H56.5522H56.5537H56.5553H56.5568H56.5583H56.5599H56.5614H56.5629H56.5645H56.566H56.5675H56.5691H56.5706H56.5721H56.5736H56.5752H56.5767H56.5782H56.5797H56.5813H56.5828H56.5843H56.5858H56.5873H56.5888H56.5903H56.5919H56.5934H56.5949H56.5964H56.5979H56.5994H56.6009H56.6024H56.6039H56.6054H56.6069H56.6084H56.6099H56.6114H56.6129H56.6143H56.6158H56.6173H56.6188H56.6203H56.6218H56.6233H56.6247H56.6262H56.6277H56.6292H56.6306H56.6321H56.6336H56.635H56.6365H56.638H56.6394H56.6409H56.6423H56.6438H56.6452H56.6467H56.6482H56.6496C57.8184 16.5177 59.11 16.5574 60.1139 17.2431C61.1042 17.9195 61.8525 19.2556 61.8525 21.9472C61.8525 24.4848 61.0231 25.7873 59.9386 26.4679C58.8387 27.1581 57.4431 27.2325 56.2584 27.2325Z" fill="white" stroke="white" stroke-width="0.3"/>
<path d="M99.1678 14.2972V14.1472H99.0178H93.7267H93.5767V14.2972V33.0001V33.1501H93.7267H99.0178H99.1678V33.0001V14.2972ZM96.4031 5.8501C95.5247 5.8501 94.7849 6.14536 94.2643 6.66324C93.7437 7.18108 93.4531 7.9107 93.4531 8.75892C93.4531 9.61706 93.7434 10.347 94.2645 10.8626C94.7855 11.3781 95.5254 11.6677 96.4031 11.6677C97.2317 11.6677 97.9507 11.3766 98.4628 10.8618C98.9749 10.3469 99.2708 9.61775 99.2708 8.75892C99.2708 7.91001 98.9747 7.18118 98.4631 6.66409C97.9514 6.14694 97.2325 5.8501 96.4031 5.8501Z" fill="white" stroke="white" stroke-width="0.3"/>
<path d="M79.5737 33.1295H79.7237V32.9795V22.2648H83.9207V32.9795V33.1295H84.0707H89.4854H89.6354V32.9795V13.5883V13.4383H89.4854H84.0707H83.9207V13.5883V19.2677H79.7237V3.0001V2.8501H79.5737H74.1178H73.9678V3.0001V32.9795V33.1295H74.1178H79.5737Z" fill="white" stroke="white" stroke-width="0.3"/>
<path d="M155.327 13.8501H155.177V14.0001V33.0001V33.1501H155.327H165.633H165.783V33.0001V30.962V30.812H165.633H160.924V24.2296H165.633H165.783V24.0796V22.5384V22.3884H165.633H160.924V15.5708H165.633H165.783V15.4208V14.0001V13.8502L165.633 13.8501H155.327Z" fill="white" stroke="white" stroke-width="0.3"/>
<path d="M46.5374 14.3084V14.1584H46.3874H41.1225H40.9725V14.3084V33.0001V33.1501H41.1225H46.3874H46.5374V33.0001V14.3084ZM43.7857 5.8501C42.9111 5.8501 42.1747 6.14594 41.6566 6.66462C41.1386 7.18318 40.8496 7.91362 40.8496 8.76266C40.8496 9.62161 41.1383 10.3524 41.6569 10.8687C42.1754 11.385 42.9119 11.6752 43.7857 11.6752C44.6106 11.6752 45.3263 11.3835 45.8359 10.8679C46.3455 10.3523 46.6398 9.6223 46.6398 8.76266C46.6398 7.91293 46.3453 7.18327 45.8362 6.66546C45.327 6.14754 44.6114 5.8501 43.7857 5.8501Z" fill="white" stroke="white" stroke-width="0.3"/>
<path d="M3.84961 8.87363V9.02363H3.99961H11.1655V33.0001V33.1501H11.3155H16.7355H16.8855V33.0001V9.02363H24.1957H24.3457V8.87363V5.0001V4.8501H24.1957H3.99961H3.84961V5.0001V8.87363Z" fill="white" stroke="white" stroke-width="0.3"/>
<path d="M27.5717 33.1501H27.7217V33.0001L27.7218 23.8732H28.8136L33.666 33.0701L33.7082 33.1501H33.7987H37.9996H38.2572L38.13 32.9261L32.9587 23.8156C34.6223 23.2906 35.6337 21.4402 35.6337 18.468C35.6337 17.4951 35.4058 16.7132 35.0173 16.0897C34.629 15.4666 34.0858 15.0101 33.4677 14.6789C32.2361 14.0188 30.6961 13.8501 29.4424 13.8501H22.9996H22.8496V14.0001V33.0001V33.1501H22.9996H27.5717ZM29.5657 22.6343H27.7218V16.7159H29.6654C30.3307 16.7159 30.9342 16.7636 31.3737 17.0587C31.7984 17.3437 32.1051 17.887 32.1051 18.9732C32.1051 19.5443 32.105 20.0591 32.0637 20.5141C32.0224 20.9692 31.9408 21.3519 31.785 21.6609C31.6314 21.9656 31.4033 22.2038 31.0563 22.3689C30.7054 22.5359 30.2253 22.6315 29.5657 22.6343Z" fill="white" stroke="white" stroke-width="0.3"/>
</g>
<defs>
<clipPath id="clip0_3170_483">
<rect width="185" height="40" fill="white"/>
</clipPath>
</defs>
</svg>
