<svg width="466" height="310" viewBox="0 0 466 310" fill="none" xmlns="http://www.w3.org/2000/svg">
<path d="M408.763 185.416L413.915 177.127L411.356 175.545C410.61 175.084 410.219 174.237 410.293 173.364C410.333 172.893 410.349 172.418 410.339 171.941C410.321 171.057 410.77 170.228 411.551 169.81L414.188 168.399L409.567 159.799L406.93 161.21C406.172 161.616 405.245 161.574 404.541 161.081C404.115 160.783 403.672 160.51 403.217 160.264C402.459 159.853 402.007 159.043 402.034 158.183L402.129 155.198L392.359 154.895L392.268 157.891C392.242 158.755 391.727 159.525 390.942 159.892C390.714 159.998 390.487 160.112 390.263 160.232C390.039 160.352 389.819 160.478 389.604 160.608C388.867 161.055 387.944 161.059 387.211 160.605L384.648 159.021L379.495 167.311L382.062 168.9C382.807 169.362 383.195 170.207 383.12 171.078C383.079 171.55 383.064 172.023 383.072 172.498C383.089 173.382 382.641 174.209 381.86 174.627L379.223 176.039L383.844 184.638L386.482 183.227C387.263 182.809 388.201 182.894 388.93 183.397C389.321 183.667 389.726 183.915 390.141 184.142C390.911 184.561 391.401 185.352 391.375 186.227L391.282 189.24L401.052 189.543L401.145 186.55C401.173 185.675 401.709 184.914 402.502 184.54C402.72 184.437 402.936 184.328 403.151 184.213C403.364 184.1 403.573 183.981 403.778 183.857C404.531 183.403 405.468 183.378 406.216 183.84L408.763 185.416ZM401.379 178.709C397.074 181.762 391.113 179.967 389.219 175.048C387.93 171.699 389.102 167.807 392.031 165.728C396.335 162.673 402.311 164.473 404.202 169.393C405.491 172.743 404.31 176.631 401.379 178.709Z" fill="#EBEBEB"/>
<path d="M378.372 154.895L384.303 151.48L383.254 149.669C382.945 149.136 382.975 148.481 383.312 147.965C383.498 147.68 383.669 147.385 383.825 147.081C384.104 146.534 384.657 146.182 385.272 146.182H387.368V139.346H385.272C384.657 139.346 384.104 138.995 383.825 138.447C383.669 138.142 383.498 137.847 383.312 137.562C382.975 137.047 382.945 136.392 383.254 135.859L384.303 134.048L378.372 130.633L377.322 132.452C377.014 132.986 376.427 133.279 375.811 133.248C375.644 133.24 375.475 133.235 375.307 133.235C375.138 133.235 374.97 133.24 374.803 133.248C374.19 133.279 373.606 132.987 373.299 132.457L372.242 130.633L366.311 134.048L367.361 135.864C367.669 136.397 367.638 137.053 367.301 137.568C367.115 137.851 366.944 138.146 366.79 138.449C366.511 138.995 365.958 139.346 365.343 139.346H363.246V146.182H365.343C365.958 146.182 366.511 146.533 366.79 147.079C366.944 147.382 367.115 147.676 367.301 147.96C367.638 148.475 367.669 149.13 367.361 149.664L366.311 151.48L372.242 154.895L373.293 153.078C373.601 152.547 374.185 152.254 374.799 152.285C374.967 152.294 375.137 152.298 375.307 152.298C375.475 152.298 375.644 152.294 375.811 152.285C376.427 152.253 377.014 152.547 377.322 153.08L378.372 154.895ZM375.307 148.361C372.209 148.361 369.7 145.857 369.7 142.766C369.7 139.675 372.209 137.166 375.307 137.166C378.405 137.166 380.919 139.675 380.919 142.766C380.919 145.857 378.405 148.361 375.307 148.361Z" fill="#EBEBEB"/>
<path d="M53.6292 57.5657C54.1635 57.8732 54.458 58.4591 54.4264 59.0741C54.4177 59.2409 54.4133 59.4089 54.4133 59.5769C54.4133 59.7474 54.4177 59.9161 54.4264 60.0835C54.4574 60.696 54.1648 61.2801 53.6317 61.5864L51.8105 62.6348L55.2328 68.5539L57.0534 67.5067C57.5877 67.1992 58.2445 67.2296 58.7608 67.5663C59.0447 67.7516 59.3392 67.9221 59.6437 68.0765C60.1911 68.3549 60.5428 68.9067 60.5428 69.5199V71.6124H67.393V69.5199C67.393 68.9067 67.7446 68.3549 68.292 68.0765C68.5959 67.9221 68.891 67.7516 69.1749 67.5663C69.6913 67.2296 70.348 67.1992 70.8824 67.5067L72.7029 68.5539L76.1252 62.6348L74.2966 61.5808C73.7647 61.2745 73.4727 60.6917 73.5038 60.0798C73.5125 59.913 73.5168 59.745 73.5168 59.5769C73.5168 59.4083 73.5125 59.2409 73.5038 59.0741C73.4721 58.4591 73.7666 57.8738 74.3009 57.5669L76.1246 56.5191L72.7023 50.6006L70.8867 51.6471C70.353 51.9553 69.6962 51.9255 69.1799 51.5895C68.8947 51.4035 68.5984 51.233 68.2933 51.078C67.7453 50.8002 67.393 50.2478 67.393 49.634V47.5415H60.5434V49.6334C60.5434 50.2472 60.1911 50.7996 59.6431 51.0774C59.3374 51.2324 59.0416 51.4029 58.7558 51.5889C58.2395 51.9249 57.5827 51.9547 57.049 51.6465L55.2341 50.6L51.8118 56.5185L53.6292 57.5657ZM63.9657 53.9765C67.0637 53.9765 69.5782 56.4856 69.5782 59.5769C69.5782 62.6683 67.0637 65.1718 63.9657 65.1718C60.8677 65.1718 58.3588 62.6683 58.3588 59.5769C58.3588 56.4856 60.8677 53.9765 63.9657 53.9765Z" fill="#EBEBEB"/>
<path d="M350.956 58.4225C349.217 62.8283 348.237 67.3809 347.957 72.096C347.89 72.0985 347.836 72.1035 347.782 72.1035C343.844 72.1041 339.906 72.1041 335.97 72.1035C335.919 72.1035 335.87 72.0973 335.819 72.0948V71.7581C335.852 71.4487 335.888 71.1394 335.917 70.8294C336.065 69.2174 336.34 67.6295 336.72 66.0572C337.343 63.4706 338.255 60.9893 339.417 58.5961C339.483 58.4579 339.562 58.4194 339.708 58.4194C343.388 58.4238 347.067 58.4225 350.747 58.4225H350.956Z" fill="#EBEBEB"/>
<path d="M350.589 88.9682H350.395C346.743 88.9682 343.09 88.9676 339.439 88.9725C339.294 88.9725 339.229 88.9266 339.166 88.7971C337.872 86.1137 336.959 83.3063 336.398 80.383C336.128 78.9763 335.94 77.5552 335.85 76.1243C335.847 76.0771 335.83 76.0288 335.819 75.9792V75.645C335.88 75.64 335.94 75.6307 336.002 75.6307C339.916 75.6307 343.833 75.6307 347.747 75.6307C347.964 75.6307 347.953 75.6314 347.969 75.849C348.043 76.8211 348.107 77.7958 348.201 78.7655C348.35 80.3093 348.613 81.8357 348.946 83.3473C349.351 85.1992 349.88 87.0146 350.533 88.7933C350.552 88.8448 350.566 88.8975 350.589 88.9682Z" fill="#EBEBEB"/>
<path d="M397.489 92.4941C397.45 92.561 397.422 92.6119 397.392 92.6596C396.464 94.1185 395.372 95.4527 394.231 96.7485C392.838 98.3326 391.282 99.7369 389.602 101.008C387.945 102.26 386.186 103.348 384.325 104.27C382.533 105.159 380.673 105.882 378.749 106.435C377.225 106.874 375.676 107.197 374.106 107.423C373.953 107.445 373.801 107.474 373.649 107.499H373.38C373.302 107.449 373.225 107.399 373.122 107.335C373.232 107.257 373.324 107.189 373.418 107.126C376.837 104.79 379.774 101.961 382.212 98.6153C383.582 96.7349 384.78 94.7515 385.805 92.6646C385.866 92.5362 385.937 92.4916 386.081 92.4928C389.817 92.4959 393.554 92.4953 397.289 92.4953H397.489V92.4941Z" fill="#EBEBEB"/>
<path d="M386.331 72.0873H370.667V58.43C370.73 58.4275 370.789 58.4225 370.848 58.4225C374.863 58.4225 378.88 58.4232 382.895 58.4194C383.03 58.4188 383.09 58.4616 383.142 58.5813C384.271 61.1555 385.097 63.8252 385.633 66.5848C385.91 68.0189 386.119 69.4629 386.236 70.9186C386.267 71.3024 386.299 71.6862 386.331 72.0873Z" fill="#EBEBEB"/>
<path d="M386.238 75.7317C386.223 76.0547 386.22 76.3759 386.192 76.6958C386.123 77.4571 386.071 78.2185 385.964 78.9755C385.816 80.0215 385.656 81.0686 385.447 82.1059C384.985 84.3918 384.295 86.6108 383.416 88.7721C383.359 88.9166 383.293 88.9736 383.13 88.9736C379.019 88.9668 374.908 88.9674 370.797 88.9674H370.575V75.7317H386.238Z" fill="#EBEBEB"/>
<path d="M367.136 58.5107V72.1891H351.84C351.862 71.8419 351.873 71.5028 351.908 71.1655C351.986 70.401 352.048 69.6316 352.169 68.8733C352.357 67.7146 352.557 66.5558 352.805 65.4076C353.307 63.09 354.064 60.8499 355.015 58.6756C355.073 58.5454 355.142 58.5076 355.276 58.5076C359.164 58.5119 363.051 58.5107 366.939 58.5107H367.136Z" fill="#EBEBEB"/>
<path d="M367.152 75.9133C367.147 80.2006 367.149 84.4886 367.149 88.7746V88.9687H366.944C362.937 88.9687 358.932 88.9681 354.927 88.973C354.782 88.973 354.716 88.9278 354.659 88.7932C353.733 86.5649 353.021 84.2685 352.576 81.9007C352.347 80.6855 352.171 79.4591 352.017 78.2334C351.915 77.433 351.894 76.6214 351.838 75.8141C351.836 75.7931 351.841 75.7707 351.844 75.7286C351.904 75.7249 351.962 75.7211 352.022 75.7211C357.001 75.7211 361.979 75.7218 366.958 75.7168C367.116 75.7162 367.152 75.7621 367.152 75.9133Z" fill="#EBEBEB"/>
<path d="M402.942 72.1847H390.107C389.828 67.451 388.862 62.8673 387.115 58.4225H387.316C391.236 58.4225 395.157 58.4232 399.078 58.4194C399.221 58.4194 399.293 58.4579 399.359 58.5862C400.732 61.3074 401.718 64.1619 402.317 67.1497C402.636 68.7375 402.834 70.3383 402.941 71.9516C402.946 72.0253 402.942 72.0973 402.942 72.1847Z" fill="#EBEBEB"/>
<path d="M402.953 75.6307C402.939 75.9394 402.931 76.2339 402.909 76.5253C402.826 77.6835 402.689 78.8336 402.488 79.9756C402.016 82.6354 401.218 85.1954 400.129 87.6661C399.955 88.0635 399.764 88.4547 399.587 88.8503C399.546 88.9402 399.495 88.9718 399.396 88.9718C395.465 88.9687 391.533 88.9687 387.602 88.9687C387.564 88.9687 387.527 88.9638 387.474 88.96C387.617 88.5496 387.759 88.1522 387.896 87.7535C388.59 85.7162 389.114 83.6336 389.484 81.5151C389.753 79.9762 389.943 78.4275 390.034 76.8694C390.057 76.503 390.079 76.1335 390.096 75.7671C390.099 75.6691 390.127 75.6201 390.23 75.63C390.271 75.6344 390.309 75.6307 390.349 75.6307H402.953Z" fill="#EBEBEB"/>
<path d="M397.137 54.9363C397.129 54.9543 397.121 54.971 397.112 54.989H396.949C393.207 54.989 389.464 54.9884 385.723 54.9909C385.59 54.9909 385.517 54.9574 385.453 54.8322C383.94 51.8524 382.105 49.0891 379.879 46.5924C378.584 45.1409 377.144 43.8445 375.603 42.6591C374.838 42.0707 374.044 41.5208 373.261 40.9541C373.221 40.9256 373.182 40.8952 373.131 40.8567C373.188 40.8177 373.233 40.7873 373.286 40.7501C373.264 40.6794 373.243 40.6069 373.212 40.5083C377.209 40.9721 380.997 42.0837 384.563 43.9078C389.684 46.5266 393.933 50.145 397.137 54.9363Z" fill="#EBEBEB"/>
<path d="M364.962 107.343C364.822 107.367 364.726 107.407 364.636 107.396C363.401 107.237 362.182 106.992 360.976 106.686C358.718 106.112 356.545 105.31 354.46 104.277C352.073 103.092 349.86 101.643 347.82 99.9285C346.376 98.7145 345.034 97.3982 343.827 95.9456C342.921 94.8525 342.096 93.7012 341.336 92.5021C341.32 92.4742 341.307 92.4457 341.283 92.3954H341.468C344.953 92.3954 348.437 92.3961 351.922 92.3911C352.062 92.3911 352.125 92.4413 352.185 92.5597C353.282 94.7564 354.549 96.8471 356.027 98.8087C357.378 100.601 358.894 102.246 360.53 103.784C361.884 105.056 363.324 106.22 364.864 107.261C364.883 107.274 364.898 107.292 364.962 107.343Z" fill="#EBEBEB"/>
<path d="M364.822 40.8418C364.346 41.1903 363.783 41.5852 363.239 42.0019C361.4 43.408 359.736 45.0014 358.175 46.7064C356.074 48.9992 354.298 51.5176 352.859 54.2723C352.769 54.4459 352.688 54.6244 352.588 54.7906C352.559 54.8408 352.483 54.8879 352.426 54.8923C352.236 54.9041 352.046 54.8966 351.855 54.8966H341.636C347.329 46.8751 354.975 42.0533 364.704 40.5802C364.683 40.6248 364.66 40.6676 364.638 40.7123C364.705 40.7581 364.774 40.8065 364.822 40.8418Z" fill="#EBEBEB"/>
<path d="M381.657 92.504C380.201 95.0516 378.48 97.3729 376.484 99.4883C374.706 101.369 372.769 103.062 370.575 104.49V92.504H381.657Z" fill="#EBEBEB"/>
<path d="M367.132 92.5071V104.262C362.632 101.17 359.127 97.247 356.501 92.5071H367.132Z" fill="#EBEBEB"/>
<path d="M381.309 54.8861H370.67V43.6852C372.866 45.1205 374.858 46.7722 376.639 48.6731C378.415 50.5697 379.948 52.6491 381.309 54.8861Z" fill="#EBEBEB"/>
<path d="M367.135 44.0355V54.9785H356.923C359.511 50.5604 362.825 46.8596 367.135 44.0355Z" fill="#EBEBEB"/>
<path d="M167.725 35.725H86.8809V90.0872H167.725V35.725Z" fill="white" stroke="#EBEBEB" stroke-miterlimit="10"/>
<path d="M94.6924 39.8387C94.6924 40.8648 93.8586 41.6969 92.8303 41.6969C91.802 41.6969 90.9688 40.8648 90.9688 39.8387C90.9688 38.8126 91.8026 37.9812 92.8303 37.9812C93.8586 37.9806 94.6924 38.8126 94.6924 39.8387Z" fill="#37474F"/>
<path d="M102.294 39.8387C102.294 40.8648 101.46 41.6969 100.433 41.6969C99.4045 41.6969 98.5713 40.8648 98.5713 39.8387C98.5713 38.8126 99.4051 37.9812 100.433 37.9812C101.461 37.9806 102.294 38.8126 102.294 39.8387Z" fill="#EBEBEB"/>
<path d="M109.897 39.8387C109.897 40.8648 109.064 41.6969 108.036 41.6969C107.008 41.6969 106.174 40.8648 106.174 39.8387C106.174 38.8126 107.008 37.9812 108.036 37.9812C109.064 37.9806 109.897 38.8126 109.897 39.8387Z" fill="#FF0909"/>
<path d="M86.8809 43.9146H167.725" stroke="#EBEBEB" stroke-miterlimit="10"/>
<path d="M233 281.395C345.817 281.395 437.273 269.924 437.273 255.775C437.273 241.625 345.817 230.155 233 230.155C120.183 230.155 28.7266 241.625 28.7266 255.775C28.7266 269.924 120.183 281.395 233 281.395Z" fill="#EBEBEB"/>
<path d="M31.5137 222.078L81.8852 221.928L132.257 221.873L233 221.769L333.743 221.872L384.114 221.927L434.486 222.078L384.114 222.23L333.743 222.284L233 222.388L132.257 222.284L81.8852 222.229L31.5137 222.078Z" fill="#1F1F1F"/>
<path d="M354.014 60.2373H110.941V222.486H354.014V60.2373Z" fill="#DBDBDB"/>
<path d="M352.247 62.2163H112.707V220.507H352.247V62.2163Z" fill="#1F1F1F"/>
<path d="M385.673 234.653H79.2822V245.789H385.673V234.653Z" fill="#C7C7C7"/>
<path d="M79.2822 234.653L110.941 222.486H354.015L385.673 234.653H79.2822Z" fill="#DBDBDB"/>
<path d="M113.769 230.338L134.198 222.486H330.757L351.187 230.338H113.769Z" fill="#1F1F1F"/>
<path d="M338.711 74.2424H126.245V208.481H338.711V74.2424Z" fill="white"/>
<path d="M338.71 74.2424H126.064V79.4076H338.71V74.2424Z" fill="#455A64"/>
<path d="M130.179 76.8254C130.179 77.5328 129.604 78.1063 128.895 78.1063C128.186 78.1063 127.611 77.5328 127.611 76.8254C127.611 76.1179 128.186 75.5444 128.895 75.5444C129.604 75.5444 130.179 76.1179 130.179 76.8254Z" fill="#C7C7C7"/>
<path d="M135.422 76.8254C135.422 77.5328 134.847 78.1063 134.138 78.1063C133.429 78.1063 132.854 77.5328 132.854 76.8254C132.854 76.1179 133.429 75.5444 134.138 75.5444C134.847 75.5444 135.422 76.1179 135.422 76.8254Z" fill="white"/>
<path d="M140.664 76.8254C140.664 77.5328 140.089 78.1063 139.38 78.1063C138.671 78.1063 138.097 77.5328 138.097 76.8254C138.097 76.1179 138.671 75.5444 139.38 75.5444C140.089 75.5444 140.664 76.1179 140.664 76.8254Z" fill="#FF0909"/>
<path d="M390.289 192.204C389.759 195.823 389.956 199.556 390.841 203.098C391.256 204.757 391.826 206.356 392.514 207.915C393.382 209.908 394.29 211.854 394.071 214.035C393.86 214.175 394.584 214.152 394.607 213.94C400.448 210.623 407.938 210.014 412.432 204.589C414.561 202.02 415.635 198.764 416.144 195.507C416.697 191.961 416.851 188.035 415.934 184.539C415.161 181.583 413.43 178.732 410.646 177.283C407.772 175.792 404.01 175.916 400.984 176.854C394.457 178.877 391.211 185.904 390.289 192.204Z" fill="#FF0909"/>
<path d="M387.29 235.346C388.087 232.695 388.884 230.044 389.702 227.399C391.304 222.22 392.971 217.059 394.814 211.959C395.919 208.905 397.084 205.88 398.31 202.883C398.1 201.001 398.018 199.125 397.613 197.25C397.124 194.991 396.415 192.808 395.754 190.597C395.714 190.461 395.935 190.389 395.99 190.518C397.302 193.564 399.013 197.462 399.055 201.07C400.481 197.68 402.006 194.335 403.646 191.044C403.738 188.237 403.841 185.518 403.389 182.693C403.368 182.566 403.562 182.528 403.586 182.655C404.024 185.026 404.334 187.569 404.157 190.026C405.413 187.553 406.735 185.109 408.142 182.704C408.269 182.487 408.569 182.708 408.459 182.922C406.264 187.139 404.227 191.444 402.318 195.807C404.964 193.466 408.168 191.694 411.475 190.516C411.62 190.464 411.729 190.674 411.582 190.736C407.818 192.306 404.657 194.526 401.677 197.28C400.304 200.474 398.997 203.697 397.751 206.94C401.406 203.365 406.406 201.013 411.244 199.752C411.409 199.709 411.452 199.961 411.294 200.009C405.696 201.691 401.347 204.858 397.09 208.662C396.595 209.974 396.109 211.289 395.634 212.606C393.83 217.6 392.12 222.629 390.481 227.679C389.695 230.1 388.922 232.525 388.162 234.954C387.345 237.568 386.707 240.327 385.643 242.851C385.541 243.092 385.108 243.037 385.163 242.748C385.643 240.246 386.556 237.786 387.29 235.346Z" fill="#1F1F1F"/>
<path d="M396.978 187.103C398.024 188.703 398.723 190.462 399.082 192.335C399.091 192.382 399.016 192.411 398.998 192.362C398.347 190.6 397.582 188.897 396.718 187.229C396.63 187.059 396.88 186.952 396.978 187.103Z" fill="#1F1F1F"/>
<path d="M407.397 199.246C408.908 198.388 410.915 197.711 412.638 197.485C412.686 197.479 412.715 197.548 412.666 197.569C411.824 197.918 410.938 198.161 410.085 198.488C409.228 198.817 408.393 199.215 407.528 199.515C407.348 199.578 407.225 199.343 407.397 199.246Z" fill="#1F1F1F"/>
<path d="M410.332 184.639C410.863 184.288 411.428 183.838 412.018 183.6C412.111 183.563 412.192 183.677 412.115 183.748C411.648 184.177 410.996 184.496 410.453 184.823C410.346 184.887 410.226 184.709 410.332 184.639Z" fill="#1F1F1F"/>
<path d="M370.598 211.999C374.804 213.245 379.033 214.396 383.238 215.628C383.603 215.737 390.714 202.141 388.144 195.136C385.769 188.653 380.331 183.801 373.848 181.599C370.844 180.581 367.151 179.726 363.979 180.424C361.158 181.047 359.165 183.351 358.248 185.998C356.999 189.597 357.416 193.888 358.095 197.562C358.726 200.969 359.976 204.324 362.234 207.001C364.469 209.649 367.319 211.028 370.598 211.999Z" fill="#FF0909"/>
<path d="M364.5 199.076C367.178 200.424 369.892 201.401 372.747 202.317C374.536 202.89 376.539 203.408 378.253 204.306C376.477 200.354 374.528 196.484 372.459 192.65C369.742 191.865 366.883 190.641 364.834 188.722C364.722 188.618 364.866 188.461 364.987 188.546C367.229 190.126 369.7 191.075 372.18 192.144C371.62 191.112 371.057 190.081 370.48 189.054C370.32 188.768 370.714 188.483 370.908 188.762C373.112 191.936 375.096 195.301 376.884 198.778C377.328 195.71 377.488 192.721 377.317 189.6C377.312 189.521 377.427 189.515 377.439 189.592C377.959 192.892 377.934 196.384 377.335 199.676C378.81 202.614 380.154 205.624 381.362 208.672C381.842 206.841 382.465 205.038 382.881 203.193C383.48 200.536 383.761 197.83 383.486 195.113C383.478 195.033 383.595 195.028 383.608 195.104C384.424 199.921 383.68 205.36 381.843 209.936C382.547 211.771 383.217 213.613 383.831 215.458C386.972 224.902 388.908 234.639 389.414 244.58C389.426 244.81 389.085 244.832 389.059 244.606C387.916 234.854 385.898 225.147 382.79 215.826C381.57 212.167 380.166 208.613 378.625 205.126C376.141 204.394 373.666 203.4 371.226 202.557C368.845 201.734 366.405 200.782 364.405 199.22C364.328 199.158 364.413 199.032 364.5 199.076Z" fill="#1F1F1F"/>
<path d="M360.578 195.126C363.15 196.039 365.589 197.318 368.159 198.243C368.279 198.287 368.209 198.477 368.088 198.452C365.369 197.892 362.671 197.053 360.481 195.274C360.396 195.205 360.489 195.095 360.578 195.126Z" fill="#1F1F1F"/>
<path d="M381.584 189.588C381.553 189.452 381.753 189.374 381.794 189.514C382.5 191.88 382.987 194.391 382.3 196.81C382.273 196.905 382.124 196.908 382.118 196.799C381.995 194.361 382.132 191.99 381.584 189.588Z" fill="#1F1F1F"/>
<path d="M370.954 184.122C371.817 185.22 372.127 186.779 372.071 188.146C372.067 188.236 371.922 188.288 371.898 188.182C371.584 186.828 371.061 185.595 370.644 184.28C370.583 184.086 370.832 183.966 370.954 184.122Z" fill="#1F1F1F"/>
<path d="M420.633 217.996C419.399 221.901 416.47 227.3 411.829 227.343C408.82 227.371 405.791 227.016 402.775 226.973C399.546 226.923 396.31 226.93 393.088 227.122C392.824 227.136 393.474 217.473 401.236 212.767C403.41 211.449 406.069 211.032 408.535 210.498C411.358 209.886 414.266 209.474 417.161 209.602C418.943 209.673 420.426 210.05 421.061 211.871C421.723 213.777 421.224 216.14 420.633 217.996Z" fill="#FF0909"/>
<path d="M417.293 213.108C415.407 213.592 413.504 214.148 411.612 214.748C412.117 214.225 412.611 213.694 413.176 213.226C413.988 212.552 414.883 212.013 415.755 211.423C415.827 211.373 415.784 211.233 415.69 211.27C413.969 211.945 412.18 213.355 411.113 214.903C408.754 215.663 406.417 216.502 404.169 217.423C402.573 218.076 401.101 218.856 399.722 219.759C400.218 218.803 400.669 217.822 401.331 216.966C402.361 215.634 403.755 214.892 405.103 213.946C405.231 213.857 405.122 213.678 404.982 213.74C401.937 215.09 400.084 217.282 398.93 220.289C397.337 221.423 395.88 222.744 394.527 224.278C389.392 230.098 385.348 237.842 385.333 245.744C385.332 245.932 385.636 245.986 385.672 245.79C387.129 237.941 390.236 230.892 395.465 224.8C395.832 224.373 396.209 223.965 396.594 223.571C398.006 223.423 399.405 223.235 400.836 223.257C402.489 223.281 404.128 223.499 405.773 223.632C408.482 223.852 411.478 223.883 413.922 222.524C414.03 222.464 413.957 222.277 413.837 222.32C408.388 224.298 402.674 221.79 397.213 222.968C399.543 220.739 402.189 219.058 405.267 217.785C405.433 217.716 405.601 217.652 405.768 217.585C409.264 218.005 412.956 218.913 416.361 217.779C416.462 217.745 416.422 217.592 416.316 217.619C413.026 218.439 409.871 217.407 406.624 217.243C410.159 215.87 413.762 214.777 417.31 213.413C417.609 213.297 417.616 213.025 417.293 213.108Z" fill="#1F1F1F"/>
<path d="M418.836 216.543C417.129 216.823 415.463 216.833 413.747 216.928C413.708 216.93 413.695 216.99 413.737 216.999C415.411 217.375 417.241 217.143 418.872 216.672C418.956 216.647 418.919 216.53 418.836 216.543Z" fill="#1F1F1F"/>
<path d="M407.342 213.194C406.414 213.514 405.55 214.3 404.823 214.942C404.734 215.02 404.854 215.179 404.951 215.107C405.378 214.797 405.818 214.505 406.262 214.219C406.666 213.958 407.118 213.751 407.489 213.444C407.604 213.35 407.48 213.146 407.342 213.194Z" fill="#1F1F1F"/>
<path d="M379.938 225.768C379.995 225.896 379.81 226.017 379.738 225.882C379.731 225.882 379.731 225.882 379.731 225.875C379.703 225.911 379.667 225.947 379.61 225.954C376.474 226.629 373.323 227.319 370.129 227.604C367.563 227.831 364.604 227.974 362.359 226.487C359.315 224.474 357.312 219.09 358.959 215.668C360.905 211.606 366.772 213.811 369.716 215.255C374.242 217.46 377.877 221.188 379.938 225.768Z" fill="#FF0909"/>
<path d="M382.213 227.646C380.487 225.96 378.577 224.557 376.552 223.346C375.164 220.995 373.034 219.042 370.811 217.507C370.7 217.43 370.605 217.606 370.707 217.685C372.624 219.157 374.12 220.884 375.545 222.762C373.28 221.501 370.885 220.463 368.443 219.538C367.592 217.982 366.206 216.525 364.628 215.724C364.596 215.707 364.556 215.751 364.587 215.776C365.965 216.852 367.07 217.969 368.033 219.384C366.59 218.846 365.133 218.346 363.676 217.864C363.545 217.82 363.495 218.019 363.619 218.068C366.212 219.079 368.863 220.145 371.433 221.375C368.19 221.809 365.27 221.91 361.971 221.348C361.884 221.333 361.846 221.457 361.934 221.481C365.116 222.388 368.765 222.556 371.974 221.631C373.613 222.435 375.213 223.312 376.736 224.293C375.461 224.127 374.179 224.351 372.887 224.607C370.634 225.054 368.43 225.45 366.123 225.371C366.038 225.368 366.014 225.509 366.102 225.525C370.026 226.198 373.736 224.418 377.625 224.882C379.066 225.869 380.428 226.96 381.676 228.182C384.12 230.576 386.075 233.438 387.583 236.499C389.22 239.824 390.108 243.348 391.431 246.784C391.489 246.934 391.699 246.877 391.672 246.717C390.539 239.945 387.159 232.474 382.213 227.646Z" fill="#1F1F1F"/>
<path d="M370.379 218.357C370.15 217.891 369.75 217.492 369.374 217.141C369.045 216.833 368.644 216.436 368.216 216.275C368.176 216.261 368.154 216.314 368.178 216.341C368.499 216.705 368.947 216.972 369.294 217.321C369.644 217.672 369.933 218.083 370.287 218.428C370.336 218.476 370.408 218.416 370.379 218.357Z" fill="#1F1F1F"/>
<path d="M363.907 220.46C363.326 220.314 362.71 220.325 362.118 220.204C361.52 220.082 360.963 219.87 360.383 219.686C360.307 219.662 360.263 219.773 360.33 219.813C361.285 220.379 362.792 220.86 363.907 220.643C364.001 220.623 363.994 220.481 363.907 220.46Z" fill="#1F1F1F"/>
<path d="M398.381 238.371L397.866 244.208L396.118 263.914H380.652L378.468 244.208L377.823 238.371H398.381Z" fill="#455A64"/>
<path d="M398.381 238.371L397.866 244.208H378.468L377.823 238.371H398.381Z" fill="#1F1F1F"/>
<path d="M399.913 236.779H376.292V241.514H399.913V236.779Z" fill="#455A64"/>
<path d="M371.712 99.1888H94.2871V136.96H371.712V99.1888Z" fill="white" stroke="#C7C7C7" stroke-miterlimit="10"/>
<path d="M109.2 123V111.8H112.864C113.739 111.8 114.459 111.949 115.024 112.248C115.6 112.536 116.021 112.925 116.288 113.416C116.565 113.907 116.704 114.467 116.704 115.096C116.704 115.704 116.565 116.259 116.288 116.76C116.021 117.251 115.605 117.645 115.04 117.944C114.475 118.232 113.749 118.376 112.864 118.376H110.544V123H109.2ZM110.544 117.24H112.832C113.728 117.24 114.368 117.048 114.752 116.664C115.136 116.269 115.328 115.747 115.328 115.096C115.328 114.403 115.136 113.869 114.752 113.496C114.368 113.112 113.728 112.92 112.832 112.92H110.544V117.24ZM120.97 123.192C120.32 123.192 119.776 123.08 119.338 122.856C118.901 122.621 118.576 122.317 118.362 121.944C118.149 121.56 118.042 121.144 118.042 120.696C118.042 120.152 118.181 119.693 118.458 119.32C118.746 118.936 119.146 118.648 119.658 118.456C120.181 118.253 120.794 118.152 121.498 118.152H123.626C123.626 117.651 123.546 117.235 123.386 116.904C123.237 116.563 123.013 116.307 122.714 116.136C122.426 115.965 122.064 115.88 121.626 115.88C121.114 115.88 120.672 116.008 120.298 116.264C119.925 116.52 119.696 116.899 119.61 117.4H118.234C118.298 116.824 118.49 116.344 118.81 115.96C119.141 115.565 119.557 115.267 120.058 115.064C120.56 114.851 121.082 114.744 121.626 114.744C122.373 114.744 122.992 114.883 123.482 115.16C123.984 115.427 124.357 115.805 124.602 116.296C124.848 116.776 124.97 117.347 124.97 118.008V123H123.77L123.69 121.576C123.584 121.8 123.445 122.013 123.274 122.216C123.114 122.408 122.922 122.579 122.698 122.728C122.485 122.867 122.234 122.979 121.946 123.064C121.658 123.149 121.333 123.192 120.97 123.192ZM121.178 122.056C121.552 122.056 121.888 121.981 122.186 121.832C122.496 121.672 122.757 121.459 122.97 121.192C123.184 120.915 123.344 120.611 123.45 120.28C123.568 119.949 123.626 119.603 123.626 119.24V119.192H121.61C121.088 119.192 120.666 119.256 120.346 119.384C120.026 119.501 119.797 119.672 119.658 119.896C119.52 120.109 119.45 120.355 119.45 120.632C119.45 120.92 119.514 121.171 119.642 121.384C119.781 121.597 119.978 121.763 120.234 121.88C120.501 121.997 120.816 122.056 121.178 122.056ZM130.553 126.712C129.828 126.712 129.183 126.616 128.617 126.424C128.063 126.243 127.631 125.96 127.321 125.576C127.012 125.192 126.857 124.717 126.857 124.152C126.857 123.907 126.905 123.645 127.001 123.368C127.108 123.091 127.284 122.819 127.529 122.552C127.785 122.285 128.143 122.045 128.601 121.832L129.529 122.376C128.964 122.611 128.596 122.877 128.425 123.176C128.255 123.485 128.169 123.768 128.169 124.024C128.169 124.376 128.271 124.669 128.473 124.904C128.676 125.139 128.959 125.315 129.321 125.432C129.684 125.549 130.095 125.608 130.553 125.608C131.012 125.608 131.407 125.539 131.737 125.4C132.068 125.272 132.324 125.091 132.505 124.856C132.687 124.632 132.777 124.36 132.777 124.04C132.777 123.667 132.639 123.352 132.361 123.096C132.084 122.851 131.556 122.707 130.777 122.664C130.148 122.621 129.62 122.563 129.193 122.488C128.767 122.413 128.415 122.328 128.137 122.232C127.86 122.125 127.625 122.008 127.433 121.88C127.252 121.752 127.087 121.619 126.937 121.48V121.112L128.489 119.576L129.657 119.992L128.057 121.432L128.265 120.872C128.383 120.957 128.495 121.037 128.601 121.112C128.708 121.187 128.852 121.251 129.033 121.304C129.215 121.357 129.465 121.405 129.785 121.448C130.116 121.491 130.548 121.533 131.081 121.576C131.817 121.629 132.404 121.757 132.841 121.96C133.289 122.163 133.609 122.435 133.801 122.776C134.004 123.117 134.105 123.523 134.105 123.992C134.105 124.451 133.977 124.883 133.721 125.288C133.476 125.704 133.092 126.045 132.569 126.312C132.047 126.579 131.375 126.712 130.553 126.712ZM130.537 120.472C129.865 120.472 129.289 120.344 128.809 120.088C128.34 119.832 127.983 119.491 127.737 119.064C127.492 118.627 127.369 118.141 127.369 117.608C127.369 117.075 127.492 116.595 127.737 116.168C127.993 115.741 128.356 115.4 128.825 115.144C129.295 114.877 129.865 114.744 130.537 114.744C131.209 114.744 131.78 114.877 132.249 115.144C132.719 115.4 133.076 115.741 133.321 116.168C133.567 116.595 133.689 117.075 133.689 117.608C133.689 118.141 133.567 118.627 133.321 119.064C133.076 119.491 132.719 119.832 132.249 120.088C131.78 120.344 131.209 120.472 130.537 120.472ZM130.537 119.368C131.113 119.368 131.567 119.219 131.897 118.92C132.228 118.621 132.393 118.184 132.393 117.608C132.393 117.043 132.228 116.611 131.897 116.312C131.567 116.013 131.113 115.864 130.537 115.864C129.972 115.864 129.513 116.013 129.161 116.312C128.82 116.611 128.649 117.043 128.649 117.608C128.649 118.184 128.82 118.621 129.161 118.92C129.503 119.219 129.961 119.368 130.537 119.368ZM131.849 116.072L131.449 114.936H134.745V115.944L131.849 116.072ZM139.835 123.192C139.088 123.192 138.421 123.016 137.835 122.664C137.248 122.312 136.789 121.821 136.459 121.192C136.128 120.552 135.963 119.811 135.963 118.968C135.963 118.115 136.123 117.373 136.443 116.744C136.773 116.115 137.232 115.624 137.819 115.272C138.416 114.92 139.099 114.744 139.867 114.744C140.656 114.744 141.328 114.92 141.883 115.272C142.437 115.624 142.859 116.088 143.147 116.664C143.445 117.229 143.595 117.853 143.595 118.536C143.595 118.643 143.595 118.755 143.595 118.872C143.595 118.989 143.589 119.123 143.579 119.272H136.971V118.232H142.267C142.235 117.496 141.989 116.92 141.531 116.504C141.083 116.088 140.517 115.88 139.835 115.88C139.387 115.88 138.965 115.987 138.571 116.2C138.176 116.403 137.861 116.707 137.627 117.112C137.392 117.507 137.275 118.003 137.275 118.6V119.048C137.275 119.709 137.392 120.264 137.627 120.712C137.872 121.16 138.187 121.496 138.571 121.72C138.965 121.944 139.387 122.056 139.835 122.056C140.4 122.056 140.864 121.933 141.227 121.688C141.6 121.432 141.872 121.085 142.043 120.648H143.371C143.232 121.139 143.003 121.576 142.683 121.96C142.363 122.333 141.963 122.632 141.483 122.856C141.013 123.08 140.464 123.192 139.835 123.192ZM150.362 123V111.8H151.706L157.674 120.776V111.8H159.018V123H157.674L151.706 114.024V123H150.362ZM165.265 123.192C164.518 123.192 163.846 123.021 163.249 122.68C162.652 122.328 162.182 121.837 161.841 121.208C161.5 120.568 161.329 119.827 161.329 118.984C161.329 118.12 161.5 117.373 161.841 116.744C162.193 116.104 162.668 115.613 163.265 115.272C163.873 114.92 164.55 114.744 165.297 114.744C166.065 114.744 166.742 114.92 167.329 115.272C167.926 115.613 168.396 116.104 168.737 116.744C169.089 117.373 169.265 118.115 169.265 118.968C169.265 119.821 169.089 120.568 168.737 121.208C168.385 121.837 167.91 122.328 167.313 122.68C166.716 123.021 166.033 123.192 165.265 123.192ZM165.281 122.04C165.74 122.04 166.166 121.928 166.561 121.704C166.956 121.469 167.276 121.123 167.521 120.664C167.766 120.205 167.889 119.64 167.889 118.968C167.889 118.285 167.766 117.72 167.521 117.272C167.286 116.813 166.972 116.472 166.577 116.248C166.193 116.013 165.766 115.896 165.297 115.896C164.849 115.896 164.422 116.013 164.017 116.248C163.622 116.472 163.302 116.813 163.057 117.272C162.822 117.72 162.705 118.285 162.705 118.968C162.705 119.64 162.822 120.205 163.057 120.664C163.302 121.123 163.617 121.469 164.001 121.704C164.396 121.928 164.822 122.04 165.281 122.04ZM174.325 123C173.845 123 173.429 122.925 173.077 122.776C172.725 122.627 172.453 122.376 172.261 122.024C172.08 121.661 171.989 121.176 171.989 120.568V116.072H170.581V114.936H171.989L172.165 112.984H173.333V114.936H175.669V116.072H173.333V120.568C173.333 121.069 173.434 121.411 173.637 121.592C173.84 121.763 174.197 121.848 174.709 121.848H175.573V123H174.325ZM182.392 123V111.8H189.208V112.904H183.736V116.84H188.392V117.928H183.736V123H182.392ZM194.451 123.192C193.705 123.192 193.033 123.021 192.435 122.68C191.838 122.328 191.369 121.837 191.027 121.208C190.686 120.568 190.515 119.827 190.515 118.984C190.515 118.12 190.686 117.373 191.027 116.744C191.379 116.104 191.854 115.613 192.451 115.272C193.059 114.92 193.737 114.744 194.483 114.744C195.251 114.744 195.929 114.92 196.515 115.272C197.113 115.613 197.582 116.104 197.923 116.744C198.275 117.373 198.451 118.115 198.451 118.968C198.451 119.821 198.275 120.568 197.923 121.208C197.571 121.837 197.097 122.328 196.499 122.68C195.902 123.021 195.219 123.192 194.451 123.192ZM194.467 122.04C194.926 122.04 195.353 121.928 195.747 121.704C196.142 121.469 196.462 121.123 196.707 120.664C196.953 120.205 197.075 119.64 197.075 118.968C197.075 118.285 196.953 117.72 196.707 117.272C196.473 116.813 196.158 116.472 195.763 116.248C195.379 116.013 194.953 115.896 194.483 115.896C194.035 115.896 193.609 116.013 193.203 116.248C192.809 116.472 192.489 116.813 192.243 117.272C192.009 117.72 191.891 118.285 191.891 118.968C191.891 119.64 192.009 120.205 192.243 120.664C192.489 121.123 192.803 121.469 193.187 121.704C193.582 121.928 194.009 122.04 194.467 122.04ZM203.584 123.192C202.965 123.192 202.421 123.069 201.952 122.824C201.493 122.579 201.136 122.2 200.88 121.688C200.634 121.176 200.512 120.536 200.512 119.768V114.936H201.856V119.624C201.856 120.424 202.032 121.027 202.384 121.432C202.736 121.837 203.232 122.04 203.872 122.04C204.32 122.04 204.725 121.933 205.088 121.72C205.45 121.496 205.733 121.181 205.936 120.776C206.149 120.36 206.256 119.848 206.256 119.24V114.936H207.6V123H206.384L206.304 121.592C206.058 122.093 205.696 122.488 205.216 122.776C204.736 123.053 204.192 123.192 203.584 123.192ZM210.147 123V114.936H211.363L211.427 116.344C211.683 115.843 212.046 115.453 212.515 115.176C212.995 114.888 213.539 114.744 214.147 114.744C214.777 114.744 215.321 114.872 215.779 115.128C216.238 115.373 216.595 115.752 216.851 116.264C217.107 116.765 217.235 117.405 217.235 118.184V123H215.891V118.328C215.891 117.517 215.71 116.909 215.347 116.504C214.995 116.099 214.494 115.896 213.843 115.896C213.395 115.896 212.995 116.008 212.643 116.232C212.291 116.445 212.009 116.76 211.795 117.176C211.593 117.581 211.491 118.088 211.491 118.696V123H210.147ZM223.223 123.192C222.444 123.192 221.756 123.011 221.159 122.648C220.572 122.275 220.119 121.768 219.799 121.128C219.479 120.488 219.319 119.763 219.319 118.952C219.319 118.141 219.479 117.421 219.799 116.792C220.119 116.152 220.572 115.651 221.159 115.288C221.756 114.925 222.45 114.744 223.239 114.744C223.89 114.744 224.46 114.877 224.951 115.144C225.452 115.411 225.842 115.784 226.119 116.264V111.48H227.463V123H226.247L226.119 121.672C225.948 121.939 225.73 122.189 225.463 122.424C225.196 122.648 224.876 122.835 224.503 122.984C224.14 123.123 223.714 123.192 223.223 123.192ZM223.367 122.024C223.9 122.024 224.37 121.896 224.775 121.64C225.18 121.384 225.495 121.032 225.719 120.584C225.954 120.125 226.071 119.587 226.071 118.968C226.071 118.36 225.954 117.827 225.719 117.368C225.495 116.909 225.18 116.552 224.775 116.296C224.37 116.04 223.9 115.912 223.367 115.912C222.855 115.912 222.391 116.04 221.975 116.296C221.57 116.552 221.255 116.909 221.031 117.368C220.807 117.827 220.695 118.36 220.695 118.968C220.695 119.587 220.807 120.125 221.031 120.584C221.255 121.032 221.57 121.384 221.975 121.64C222.391 121.896 222.855 122.024 223.367 122.024Z" fill="black" fill-opacity="0.6"/>
<path d="M371.713 99.1888H333.861V136.96H371.713V99.1888Z" fill="#FF0909"/>
<path d="M364.786 128.661L361.289 131.304L354.812 122.77L352.442 119.649C352.916 119.465 353.374 119.208 353.801 118.882C354.623 118.257 355.223 117.448 355.597 116.56L358.114 119.87L364.786 128.661Z" fill="white"/>
<path d="M357.903 108.567C354.696 104.395 348.704 103.606 344.522 106.807C340.341 110.007 339.551 115.986 342.758 120.159C345.639 123.911 350.768 124.925 354.812 122.771C355.27 122.524 355.712 122.245 356.134 121.919C356.913 121.32 357.576 120.627 358.114 119.87C360.473 116.554 360.51 111.967 357.903 108.567ZM353.801 118.882C353.374 119.208 352.916 119.465 352.442 119.649C350.125 120.574 347.392 119.901 345.802 117.831C343.885 115.335 344.354 111.757 346.855 109.844C349.357 107.931 352.937 108.404 354.859 110.901C356.144 112.577 356.355 114.742 355.597 116.56C355.223 117.448 354.623 118.257 353.801 118.882Z" fill="white"/>
<path d="M108.031 106.613H107V129.535H108.031V106.613Z" fill="#1F1F1F"/>
<path d="M237.848 151.609L241.742 160.992L237.853 162.599L233.938 153.152L227.511 158.128V131.695L246.054 150.388L237.848 151.609Z" fill="#1F1F1F"/>
<path d="M227.737 128.18C227.493 127.596 227.437 127.011 227.427 126.427C227.436 125.843 227.491 125.259 227.737 124.675C227.984 125.259 228.039 125.843 228.048 126.427C228.038 127.011 227.983 127.596 227.737 128.18Z" fill="#1F1F1F"/>
<path d="M224.712 129.431C224.125 129.191 223.672 128.816 223.25 128.41C222.843 127.99 222.467 127.538 222.228 126.951C222.816 127.19 223.269 127.565 223.689 127.972C224.096 128.393 224.471 128.845 224.712 129.431Z" fill="#1F1F1F"/>
<path d="M223.459 132.45C222.874 132.694 222.288 132.749 221.703 132.76C221.117 132.751 220.532 132.696 219.946 132.45C220.532 132.204 221.117 132.149 221.703 132.14C222.288 132.151 222.873 132.205 223.459 132.45Z" fill="#1F1F1F"/>
<path d="M224.713 135.469C224.472 136.055 224.097 136.507 223.69 136.928C223.269 137.334 222.816 137.709 222.229 137.948C222.468 137.361 222.844 136.909 223.251 136.49C223.672 136.084 224.125 135.709 224.713 135.469Z" fill="#1F1F1F"/>
<path d="M232.017 132.45C232.602 132.206 233.188 132.151 233.773 132.14C234.359 132.149 234.944 132.204 235.53 132.45C234.944 132.696 234.358 132.751 233.773 132.76C233.188 132.749 232.602 132.694 232.017 132.45Z" fill="#1F1F1F"/>
<path d="M230.764 129.431C231.005 128.845 231.379 128.393 231.786 127.972C232.207 127.565 232.66 127.19 233.248 126.951C233.008 127.538 232.633 127.99 232.225 128.41C231.804 128.816 231.351 129.191 230.764 129.431Z" fill="#1F1F1F"/>
</svg>
