<svg width="484" height="319" viewBox="0 0 484 319" fill="none" xmlns="http://www.w3.org/2000/svg">
<path d="M157.614 0C127.323 -0.000161689 80.8862 32.9833 61.2911 51.6531C57.0416 54.5572 41.6016 67.8333 13.838 97.7049C-20.8666 135.045 20.2123 161.805 23.7535 212.835C27.2948 263.866 44.293 342.279 249.687 312.407C414.002 288.51 401.254 256.813 374.34 243.952C352.384 222.17 341.33 212.835 374.34 166.161C407.35 119.486 405.503 82.7691 294.307 47.2965C276.382 41.5781 206.483 0.00026086 157.614 0Z" fill="#F0F3FF"/>
<path d="M307.096 109.438L304.312 95.464L423.46 79.0002L307.096 109.438Z" fill="#E4E4E4"/>
<path d="M313.121 139.688L310.337 125.714L471.018 100.979L313.121 139.688Z" fill="#E4E4E4"/>
<path d="M319.144 169.939L316.36 155.965L435.509 139.501L319.144 169.939Z" fill="#E4E4E4"/>
<path d="M325.169 200.189L322.387 186.215L483.068 161.48L325.169 200.189Z" fill="#E4E4E4"/>
<path d="M331.192 230.44L328.41 216.466L447.557 200.002L331.192 230.44Z" fill="#E4E4E4"/>
<path d="M332.188 235.682L118.968 278.071C114.169 279.024 109.505 275.908 108.55 271.109L83.4353 144.782C82.4818 139.983 85.5976 135.32 90.3967 134.366L303.617 91.9775C308.416 91.0241 313.08 94.1399 314.035 98.939L339.15 225.266C340.103 230.064 336.986 234.727 332.188 235.682Z" fill="#E3B33E"/>
<path d="M332.189 235.683L118.968 278.071C114.287 279.002 109.744 276.054 108.639 271.455L186.244 155.337C194.395 143.141 210.889 139.862 223.086 148.013L339.203 225.618C339.939 230.291 336.87 234.751 332.189 235.683Z" fill="#D98939"/>
<path opacity="0.2" d="M314.035 98.9373C313.082 94.1382 308.417 91.0208 303.618 91.9758L90.3972 134.364C85.5981 135.318 82.4807 139.983 83.4357 144.78L84.5504 150.386L198.726 226.692C212.005 235.567 229.966 231.998 238.842 218.717L315.148 104.541L314.035 98.9373Z" fill="#DB360B"/>
<path d="M303.618 91.9755L90.3975 134.364C85.7166 135.295 82.6471 139.756 83.3833 144.429L199.501 222.033C211.697 230.185 228.192 226.904 236.343 214.709L313.948 98.592C312.843 93.9925 308.301 91.0444 303.618 91.9755Z" fill="#F7E439"/>
<path d="M241.26 111.11L91.7611 140.831C90.5314 141.075 89.3352 140.276 89.0908 139.045C88.8465 137.815 89.645 136.619 90.8763 136.375L240.375 106.654C241.605 106.41 242.801 107.208 243.045 108.439C243.29 109.669 242.49 110.865 241.26 111.11Z" fill="#F7F1D0"/>
<path d="M125.491 152.539C130.467 131.696 117.603 110.765 96.7595 105.789C75.9159 100.813 54.9851 113.677 50.0094 134.521C45.0336 155.364 57.8971 176.295 78.7408 181.271C99.5845 186.246 120.515 173.383 125.491 152.539Z" fill="#FF0909"/>
<path d="M126.544 143.52C126.544 164.967 109.157 182.335 87.7293 182.335C74.8796 182.335 63.4799 176.082 56.4258 166.454C62.8507 171.181 70.8007 173.984 79.3976 173.984C100.825 173.984 118.193 156.616 118.193 135.189C118.193 126.609 115.409 118.659 110.682 112.236C120.311 119.288 126.544 130.671 126.544 143.52Z" fill="#C1001F"/>
<path d="M87.7711 153.343C85.3389 153.343 83.333 151.438 83.2052 149.011L81.9387 124.74C81.7647 121.399 84.4253 118.595 87.7711 118.595C91.1169 118.595 93.7792 121.399 93.6035 124.74L92.3355 149.011C92.2109 151.438 90.2034 153.343 87.7711 153.343Z" fill="white"/>
<path d="M93.9377 162.263C93.9377 165.688 91.1621 168.464 87.7365 168.464C84.3124 168.464 81.5352 165.688 81.5352 162.263C81.5352 158.837 84.3124 156.061 87.7365 156.061C91.1605 156.061 93.9377 158.839 93.9377 162.263Z" fill="white"/>
</svg>
