<svg width="184" height="40" viewBox="0 0 184 40" fill="none" xmlns="http://www.w3.org/2000/svg">
<rect width="70.5882" height="40" fill="#FF0909"/>
<path d="M181.1 12.1563V12.0367L180.983 12.0101C179.798 11.7397 178.572 11.6151 177.388 11.6151C175.333 11.6151 173.392 12.0298 171.959 12.9488C170.519 13.8726 169.6 15.3032 169.6 17.3034C169.6 19.1211 170.302 20.2568 171.325 21.0238C172.336 21.7815 173.656 22.1739 174.875 22.5326L174.876 22.5327C175.87 22.8227 176.794 23.0952 177.472 23.5314C177.808 23.7476 178.077 24.0005 178.263 24.3101C178.449 24.6188 178.556 24.9918 178.556 25.4563C178.556 26.1494 178.405 26.6988 178.149 27.1345C177.893 27.5701 177.526 27.9006 177.081 28.1484C176.186 28.6468 174.982 28.8063 173.765 28.8063C172.869 28.8063 171.951 28.725 171.195 28.623C170.777 28.5396 170.36 28.498 170.07 28.4773L169.909 28.4658V28.6269V31.3034V31.4376L170.042 31.4525C171.16 31.5766 172.298 31.6387 173.456 31.6387C176.059 31.6387 178.618 31.2881 180.533 30.3442C181.491 29.8713 182.293 29.2471 182.855 28.4388C183.418 27.6291 183.735 26.6427 183.735 25.4563C183.735 23.3387 183.035 22.0768 182.007 21.2769C180.992 20.4869 179.672 20.1621 178.474 19.8752C177.499 19.6369 176.656 19.4204 176.052 19.0444C175.754 18.8587 175.52 18.6372 175.36 18.3595C175.201 18.0822 175.109 17.7397 175.109 17.3034C175.109 16.722 175.229 16.2789 175.431 15.939C175.632 15.5998 175.92 15.3535 176.272 15.175C176.984 14.8143 177.945 14.7357 178.932 14.7357C179.28 14.7357 179.628 14.7459 179.968 14.7562L180 14.7572C180.328 14.7672 180.649 14.7769 180.95 14.7769H181.1V14.6269V12.1563Z" fill="black" stroke="black" stroke-width="0.3"/>
<path d="M151.256 13.0031V12.8531H151.106H145.815H145.665V13.0031V31.5325V31.6825H145.815H151.106H151.256V31.5325V13.0031ZM148.491 4.55605C147.613 4.55605 146.873 4.85132 146.353 5.3692C145.832 5.88704 145.541 6.61665 145.541 7.46488C145.541 8.32301 145.832 9.05295 146.353 9.56856C146.874 10.0841 147.614 10.3737 148.491 10.3737C149.32 10.3737 150.039 10.0825 150.551 9.56772C151.063 9.05285 151.359 8.3237 151.359 7.46488C151.359 6.61597 151.063 5.88713 150.551 5.37004C150.04 4.85289 149.321 4.55605 148.491 4.55605Z" fill="black" stroke="black" stroke-width="0.3"/>
<path d="M124.314 39.3556V39.5056H124.464H129.735H129.885V39.3556V28.7792H131.279C132.933 28.7792 135.535 28.5835 137.728 27.5027C138.826 26.9612 139.827 26.1954 140.552 25.117C141.279 24.0377 141.723 22.6541 141.723 20.888C141.723 18.9645 141.354 17.4896 140.736 16.3605C140.118 15.2304 139.255 14.4555 138.281 13.9261C136.342 12.8713 133.964 12.7909 132.206 12.7909H132.204H132.202H132.2H132.198H132.196H132.194H132.192H132.19H132.188H132.186H132.184H132.182H132.18H132.179H132.177H132.175H132.173H132.171H132.169H132.167H132.165H132.163H132.161H132.159H132.157H132.156H132.154H132.152H132.15H132.148H132.146H132.144H132.142H132.14H132.138H132.136H132.134H132.133H132.131H132.129H132.127H132.125H132.123H132.121H132.119H132.117H132.115H132.113H132.112H132.11H132.108H132.106H132.104H132.102H132.1H132.098H132.096H132.094H132.092H132.091H132.089H132.087H132.085H132.083H132.081H132.079H132.077H132.075H132.073H132.072H132.07H132.068H132.066H132.064H132.062H132.06H132.058H132.056H132.055H132.053H132.051H132.049H132.047H132.045H132.043H132.041H132.039H132.038H132.036H132.034H132.032H132.03H132.028H132.026H132.024H132.022H132.021H132.019H132.017H132.015H132.013H132.011H132.009H132.007H132.005H132.004H132.002H132H131.998H131.996H131.994H131.992H131.99H131.989H131.987H131.985H131.983H131.981H131.979H131.977H131.975H131.974H131.972H131.97H131.968H131.966H131.964H131.962H131.96H131.959H131.957H131.955H131.953H131.951H131.949H131.947H131.946H131.944H131.942H131.94H131.938H131.936H131.934H131.932H131.931H131.929H131.927H131.925H131.923H131.921H131.919H131.918H131.916H131.914H131.912H131.91H131.908H131.906H131.905H131.903H131.901H131.899H131.897H131.895H131.893H131.892H131.89H131.888H131.886H131.884H131.882H131.881H131.879H131.877H131.875H131.873H131.871H131.869H131.868H131.866H131.864H131.862H131.86H131.858H131.857H131.855H131.853H131.851H131.849H131.847H131.845H131.844H131.842H131.84H131.838H131.836H131.834H131.833H131.831H131.829H131.827H131.825H131.823H131.822H131.82H131.818H131.816H131.814H131.812H131.811H131.809H131.807H131.805H131.803H131.801H131.8H131.798H131.796H131.794H131.792H131.79H131.789H131.787H131.785H131.783H131.781H131.78H131.778H131.776H131.774H131.772H131.77H131.769H131.767H131.765H131.763H131.761H131.76H131.758H131.756H131.754H131.752H131.75H131.749H131.747H131.745H131.743H131.741H131.74H131.738H131.736H131.734H131.732H131.73H131.729H131.727H131.725H131.723H131.721H131.72H131.718H131.716H131.714H131.712H131.711H131.709H131.707H131.705H131.703H131.702H131.7H131.698H131.696H131.694H131.693H131.691H131.689H131.687H131.685H131.684H131.682H131.68H131.678H131.676H131.675H131.673H131.671H131.669H131.667H131.666H131.664H131.662H131.66H131.658H131.657H131.655H131.653H131.651H131.649H131.648H131.646H131.644H131.642H131.641H131.639H131.637H131.635H131.633H131.632H131.63H131.628H131.626H131.624H131.623H131.621H131.619H131.617H131.616H131.614H131.612H131.61H131.608H131.607H131.605H131.603H131.601H131.6H131.598H131.596H131.594H131.592H131.591H131.589H131.587H131.585H131.584H131.582H131.58H131.578H131.577H131.575H131.573H131.571H131.569H131.568H131.566H131.564H131.562H131.561H131.559H131.557H131.555H131.554H131.552H131.55H131.548H131.546H131.545H131.543H131.541H131.539H131.538H131.536H131.534H131.532H131.531H131.529H131.527H131.525H131.524H131.522H131.52H131.518H131.517H131.515H131.513H131.511H131.51H131.508H131.506H131.504H131.503H131.501H131.499H131.497H131.496H131.494H131.492H131.49H131.489H131.487H131.485H131.483H131.482H131.48H131.478H131.476H131.475H131.473H131.471H131.469H131.468H131.466H131.464H131.462H131.461H131.459H131.457H131.456H131.454H131.452H131.45H131.449H131.447H131.445H131.443H131.442H131.44H131.438H131.436H131.435H131.433H131.431H131.43H131.428H131.426H131.424H131.423H131.421H131.419H131.417H131.416H131.414H131.412H131.411H131.409H131.407H131.405H131.404H131.402H131.4H131.398H131.397H131.395H131.393H131.392H131.39H131.388H131.386H131.385H131.383H131.381H131.38H131.378H131.376H131.374H131.373H131.371H131.369H131.368H131.366H131.364H131.362H131.361H131.359H131.357H131.356H131.354H131.352H131.35H131.349H131.347H131.345H131.344H131.342H131.34H131.338H131.337H131.335H131.333H131.332H131.33H131.328H131.327H131.325H131.323H131.321H131.32H131.318H131.316H131.315H131.313H131.311H131.31H131.308H131.306H131.304H131.303H131.301H131.299H131.298H131.296H131.294H131.293H131.291H131.289H131.288H131.286H131.284H131.282H131.281H131.279H124.464H124.314V12.9409V39.3556ZM130.723 26.1733H129.885V15.4586H130.723H130.724H130.725H130.725H130.726H130.727H130.728H130.728H130.729H130.73H130.73H130.731H130.732H130.733H130.733H130.734H130.735H130.736H130.736H130.737H130.738H130.738H130.739H130.74H130.741H130.741H130.742H130.743H130.744H130.744H130.745H130.746H130.747H130.747H130.748H130.749H130.75H130.75H130.751H130.752H130.752H130.753H130.754H130.755H130.755H130.756H130.757H130.758H130.758H130.759H130.76H130.761H130.761H130.762H130.763H130.764H130.764H130.765H130.766H130.767H130.767H130.768H130.769H130.77H130.77H130.771H130.772H130.773H130.773H130.774H130.775H130.776H130.776H130.777H130.778H130.779H130.779H130.78H130.781H130.782H130.782H130.783H130.784H130.785H130.785H130.786H130.787H130.788H130.788H130.789H130.79H130.791H130.792H130.792H130.793H130.794H130.795H130.795H130.796H130.797H130.798H130.798H130.799H130.8H130.801H130.801H130.802H130.803H130.804H130.804H130.805H130.806H130.807H130.808H130.808H130.809H130.81H130.811H130.811H130.812H130.813H130.814H130.814H130.815H130.816H130.817H130.818H130.818H130.819H130.82H130.821H130.821H130.822H130.823H130.824H130.824H130.825H130.826H130.827H130.828H130.828H130.829H130.83H130.831H130.831H130.832H130.833H130.834H130.834H130.835H130.836H130.837H130.838H130.838H130.839H130.84H130.841H130.841H130.842H130.843H130.844H130.845H130.845H130.846H130.847H130.848H130.848H130.849H130.85H130.851H130.852H130.852H130.853H130.854H130.855H130.855H130.856H130.857H130.858H130.859H130.859H130.86H130.861H130.862H130.862H130.863H130.864H130.865H130.866H130.866H130.867H130.868H130.869H130.869H130.87H130.871H130.872H130.873H130.873H130.874H130.875H130.876H130.876H130.877H130.878H130.879H130.88H130.88H130.881H130.882H130.883H130.884H130.884H130.885H130.886H130.887H130.887H130.888H130.889H130.89H130.891H130.891H130.892H130.893H130.894H130.894H130.895H130.896H130.897H130.898H130.898H130.899H130.9H130.901H130.902H130.902H130.903H130.904H130.905H130.905H130.906H130.907H130.908H130.909H130.909H130.91H130.911H130.912H130.912H130.913H130.914H130.915H130.916H130.916H130.917H130.918H130.919H130.92H130.92H130.921H130.922H130.923H130.923H130.924H130.925H130.926H130.927H130.927H130.928H130.929H130.93H130.931H130.931H130.932H130.933H130.934H130.934H130.935H130.936H130.937H130.938H130.938H130.939H130.94H130.941H130.941H130.942H130.943H130.944H130.945H130.945H130.946H130.947H130.948H130.949H130.949H130.95H130.951H130.952H130.952H130.953H130.954H130.955H130.956H130.956H130.957H130.958H130.959H130.959H130.96H130.961H130.962H130.963H130.963H130.964H130.965H130.966H130.967H130.967H130.968H130.969H130.97H130.97H130.971H130.972H130.973H130.974H130.974H130.975H130.976H130.977H130.977H130.978H130.979H130.98H130.981H130.981H130.982H130.983H130.984H130.984H130.985H130.986H130.987H130.988H130.988H130.989H130.99H130.991H130.991H130.992H130.993H130.994H130.995H130.995H130.996H130.997H130.998H130.998H130.999H131H131.001H131.002H131.002H131.003H131.004H131.005H131.005H131.006H131.007H131.008H131.008H131.009H131.01H131.011H131.012H131.012H131.013H131.014H131.015H131.015H131.016H131.017H131.018H131.018H131.019H131.02H131.021H131.022H131.022H131.023H131.024H131.025H131.025H131.026H131.027H131.028H131.028H131.029H131.03H131.031H131.032H131.032H131.033H131.034H131.035H131.035H131.036H131.037H131.038H131.038H131.039H131.04H131.041H131.041H131.042H131.043H131.044H131.044H131.045H131.046H131.047H131.048H131.048H131.049H131.05H131.051H131.051H131.052H131.053H131.054H131.054H131.055H131.056H131.057H131.057H131.058H131.059H131.06H131.06H131.061H131.062H131.063H131.063H131.064H131.065H131.066H131.066H131.067H131.068H131.069H131.069H131.07H131.071H131.072H131.072H131.073H131.074H131.075H131.075H131.076H131.077H131.078H131.078H131.079H131.08H131.081H131.081H131.082H131.083H131.084H131.084H131.085H131.086H131.087H131.087H131.088H131.089H131.089H131.09H131.091H131.092H131.092H131.093H131.094H131.095H131.095H131.096H131.097H131.098H131.098H131.099H131.1H131.101H131.101H131.102H131.103H131.103H131.104H131.105H131.106H131.106H131.107H131.108H131.109H131.109H131.11H131.111H131.111H131.112H131.113H131.114H131.114C132.283 15.4586 133.575 15.4982 134.579 16.1839C135.569 16.8603 136.317 18.1964 136.317 20.888C136.317 23.4256 135.488 24.7282 134.403 25.4087C133.304 26.0989 131.908 26.1733 130.723 26.1733Z" fill="black" stroke="black" stroke-width="0.3"/>
<path d="M103.088 39.3556V39.5056H103.238H108.509H108.659V39.3556V28.7792H110.053C111.707 28.7792 114.309 28.5835 116.502 27.5027C117.6 26.9612 118.601 26.1954 119.326 25.117C120.053 24.0377 120.497 22.6541 120.497 20.888C120.497 18.9645 120.128 17.4896 119.51 16.3605C118.892 15.2304 118.029 14.4555 117.055 13.9261C115.116 12.8713 112.738 12.7909 110.979 12.7909H110.978H110.976H110.974H110.972H110.97H110.968H110.966H110.964H110.962H110.96H110.958H110.956H110.954H110.952H110.951H110.949H110.947H110.945H110.943H110.941H110.939H110.937H110.935H110.933H110.931H110.929H110.928H110.926H110.924H110.922H110.92H110.918H110.916H110.914H110.912H110.91H110.908H110.906H110.905H110.903H110.901H110.899H110.897H110.895H110.893H110.891H110.889H110.887H110.885H110.884H110.882H110.88H110.878H110.876H110.874H110.872H110.87H110.868H110.866H110.864H110.863H110.861H110.859H110.857H110.855H110.853H110.851H110.849H110.847H110.845H110.844H110.842H110.84H110.838H110.836H110.834H110.832H110.83H110.828H110.827H110.825H110.823H110.821H110.819H110.817H110.815H110.813H110.811H110.81H110.808H110.806H110.804H110.802H110.8H110.798H110.796H110.794H110.793H110.791H110.789H110.787H110.785H110.783H110.781H110.779H110.778H110.776H110.774H110.772H110.77H110.768H110.766H110.764H110.762H110.761H110.759H110.757H110.755H110.753H110.751H110.749H110.747H110.746H110.744H110.742H110.74H110.738H110.736H110.734H110.733H110.731H110.729H110.727H110.725H110.723H110.721H110.719H110.718H110.716H110.714H110.712H110.71H110.708H110.706H110.705H110.703H110.701H110.699H110.697H110.695H110.693H110.692H110.69H110.688H110.686H110.684H110.682H110.68H110.679H110.677H110.675H110.673H110.671H110.669H110.667H110.666H110.664H110.662H110.66H110.658H110.656H110.654H110.653H110.651H110.649H110.647H110.645H110.643H110.642H110.64H110.638H110.636H110.634H110.632H110.63H110.629H110.627H110.625H110.623H110.621H110.619H110.618H110.616H110.614H110.612H110.61H110.608H110.607H110.605H110.603H110.601H110.599H110.597H110.596H110.594H110.592H110.59H110.588H110.586H110.585H110.583H110.581H110.579H110.577H110.575H110.574H110.572H110.57H110.568H110.566H110.564H110.563H110.561H110.559H110.557H110.555H110.553H110.552H110.55H110.548H110.546H110.544H110.543H110.541H110.539H110.537H110.535H110.533H110.532H110.53H110.528H110.526H110.524H110.523H110.521H110.519H110.517H110.515H110.513H110.512H110.51H110.508H110.506H110.504H110.503H110.501H110.499H110.497H110.495H110.494H110.492H110.49H110.488H110.486H110.485H110.483H110.481H110.479H110.477H110.475H110.474H110.472H110.47H110.468H110.466H110.465H110.463H110.461H110.459H110.457H110.456H110.454H110.452H110.45H110.449H110.447H110.445H110.443H110.441H110.44H110.438H110.436H110.434H110.432H110.431H110.429H110.427H110.425H110.423H110.422H110.42H110.418H110.416H110.414H110.413H110.411H110.409H110.407H110.406H110.404H110.402H110.4H110.398H110.397H110.395H110.393H110.391H110.389H110.388H110.386H110.384H110.382H110.381H110.379H110.377H110.375H110.373H110.372H110.37H110.368H110.366H110.365H110.363H110.361H110.359H110.358H110.356H110.354H110.352H110.35H110.349H110.347H110.345H110.343H110.342H110.34H110.338H110.336H110.335H110.333H110.331H110.329H110.327H110.326H110.324H110.322H110.32H110.319H110.317H110.315H110.313H110.312H110.31H110.308H110.306H110.305H110.303H110.301H110.299H110.298H110.296H110.294H110.292H110.291H110.289H110.287H110.285H110.284H110.282H110.28H110.278H110.277H110.275H110.273H110.271H110.27H110.268H110.266H110.264H110.263H110.261H110.259H110.257H110.256H110.254H110.252H110.25H110.249H110.247H110.245H110.243H110.242H110.24H110.238H110.236H110.235H110.233H110.231H110.229H110.228H110.226H110.224H110.222H110.221H110.219H110.217H110.216H110.214H110.212H110.21H110.209H110.207H110.205H110.203H110.202H110.2H110.198H110.197H110.195H110.193H110.191H110.19H110.188H110.186H110.184H110.183H110.181H110.179H110.178H110.176H110.174H110.172H110.171H110.169H110.167H110.165H110.164H110.162H110.16H110.159H110.157H110.155H110.153H110.152H110.15H110.148H110.147H110.145H110.143H110.141H110.14H110.138H110.136H110.135H110.133H110.131H110.129H110.128H110.126H110.124H110.123H110.121H110.119H110.118H110.116H110.114H110.112H110.111H110.109H110.107H110.106H110.104H110.102H110.1H110.099H110.097H110.095H110.094H110.092H110.09H110.089H110.087H110.085H110.083H110.082H110.08H110.078H110.077H110.075H110.073H110.072H110.07H110.068H110.067H110.065H110.063H110.061H110.06H110.058H110.056H110.055H110.053H103.238H103.088V12.9409V39.3556ZM109.497 26.1733H108.659V15.4586H109.497H109.498H109.499H109.499H109.5H109.501H109.501H109.502H109.503H109.504H109.504H109.505H109.506H109.507H109.507H109.508H109.509H109.509H109.51H109.511H109.512H109.512H109.513H109.514H109.515H109.515H109.516H109.517H109.518H109.518H109.519H109.52H109.52H109.521H109.522H109.523H109.523H109.524H109.525H109.526H109.526H109.527H109.528H109.529H109.529H109.53H109.531H109.532H109.532H109.533H109.534H109.535H109.535H109.536H109.537H109.538H109.538H109.539H109.54H109.541H109.541H109.542H109.543H109.544H109.544H109.545H109.546H109.547H109.547H109.548H109.549H109.55H109.55H109.551H109.552H109.553H109.553H109.554H109.555H109.556H109.556H109.557H109.558H109.559H109.559H109.56H109.561H109.562H109.562H109.563H109.564H109.565H109.565H109.566H109.567H109.568H109.568H109.569H109.57H109.571H109.572H109.572H109.573H109.574H109.575H109.575H109.576H109.577H109.578H109.578H109.579H109.58H109.581H109.581H109.582H109.583H109.584H109.585H109.585H109.586H109.587H109.588H109.588H109.589H109.59H109.591H109.591H109.592H109.593H109.594H109.595H109.595H109.596H109.597H109.598H109.598H109.599H109.6H109.601H109.601H109.602H109.603H109.604H109.605H109.605H109.606H109.607H109.608H109.608H109.609H109.61H109.611H109.611H109.612H109.613H109.614H109.615H109.615H109.616H109.617H109.618H109.618H109.619H109.62H109.621H109.622H109.622H109.623H109.624H109.625H109.625H109.626H109.627H109.628H109.629H109.629H109.63H109.631H109.632H109.632H109.633H109.634H109.635H109.636H109.636H109.637H109.638H109.639H109.639H109.64H109.641H109.642H109.643H109.643H109.644H109.645H109.646H109.646H109.647H109.648H109.649H109.65H109.65H109.651H109.652H109.653H109.654H109.654H109.655H109.656H109.657H109.657H109.658H109.659H109.66H109.661H109.661H109.662H109.663H109.664H109.664H109.665H109.666H109.667H109.668H109.668H109.669H109.67H109.671H109.672H109.672H109.673H109.674H109.675H109.675H109.676H109.677H109.678H109.679H109.679H109.68H109.681H109.682H109.682H109.683H109.684H109.685H109.686H109.686H109.687H109.688H109.689H109.69H109.69H109.691H109.692H109.693H109.693H109.694H109.695H109.696H109.697H109.697H109.698H109.699H109.7H109.701H109.701H109.702H109.703H109.704H109.704H109.705H109.706H109.707H109.708H109.708H109.709H109.71H109.711H109.712H109.712H109.713H109.714H109.715H109.715H109.716H109.717H109.718H109.719H109.719H109.72H109.721H109.722H109.722H109.723H109.724H109.725H109.726H109.726H109.727H109.728H109.729H109.73H109.73H109.731H109.732H109.733H109.733H109.734H109.735H109.736H109.737H109.737H109.738H109.739H109.74H109.74H109.741H109.742H109.743H109.744H109.744H109.745H109.746H109.747H109.747H109.748H109.749H109.75H109.751H109.751H109.752H109.753H109.754H109.754H109.755H109.756H109.757H109.758H109.758H109.759H109.76H109.761H109.761H109.762H109.763H109.764H109.765H109.765H109.766H109.767H109.768H109.768H109.769H109.77H109.771H109.772H109.772H109.773H109.774H109.775H109.775H109.776H109.777H109.778H109.779H109.779H109.78H109.781H109.782H109.782H109.783H109.784H109.785H109.785H109.786H109.787H109.788H109.789H109.789H109.79H109.791H109.792H109.792H109.793H109.794H109.795H109.795H109.796H109.797H109.798H109.799H109.799H109.8H109.801H109.802H109.802H109.803H109.804H109.805H109.805H109.806H109.807H109.808H109.809H109.809H109.81H109.811H109.812H109.812H109.813H109.814H109.815H109.815H109.816H109.817H109.818H109.818H109.819H109.82H109.821H109.821H109.822H109.823H109.824H109.824H109.825H109.826H109.827H109.828H109.828H109.829H109.83H109.831H109.831H109.832H109.833H109.834H109.834H109.835H109.836H109.837H109.837H109.838H109.839H109.84H109.84H109.841H109.842H109.843H109.843H109.844H109.845H109.846H109.846H109.847H109.848H109.849H109.849H109.85H109.851H109.852H109.852H109.853H109.854H109.855H109.855H109.856H109.857H109.857H109.858H109.859H109.86H109.86H109.861H109.862H109.863H109.863H109.864H109.865H109.866H109.866H109.867H109.868H109.869H109.869H109.87H109.871H109.872H109.872H109.873H109.874H109.874H109.875H109.876H109.877H109.877H109.878H109.879H109.88H109.88H109.881H109.882H109.882H109.883H109.884H109.885H109.885H109.886H109.887H109.888H109.888C111.057 15.4586 112.349 15.4982 113.353 16.1839C114.343 16.8603 115.091 18.1964 115.091 20.888C115.091 23.4256 114.262 24.7282 113.177 25.4087C112.077 26.0989 110.682 26.1733 109.497 26.1733Z" fill="black" stroke="black" stroke-width="0.3"/>
<path d="M99.1677 13.0031V12.8531H99.0177H93.7266H93.5766V13.0031V31.5325V31.6825H93.7266H99.0177H99.1677V31.5325V13.0031ZM96.403 4.55605C95.5246 4.55605 94.7848 4.85132 94.2642 5.3692C93.7436 5.88704 93.453 6.61665 93.453 7.46488C93.453 8.32301 93.7433 9.05295 94.2644 9.56856C94.7854 10.0841 95.5253 10.3737 96.403 10.3737C97.2316 10.3737 97.9506 10.0825 98.4627 9.56772C98.9748 9.05285 99.2707 8.3237 99.2707 7.46488C99.2707 6.61597 98.9746 5.88713 98.463 5.37004C97.9513 4.85289 97.2324 4.55605 96.403 4.55605Z" fill="black" stroke="black" stroke-width="0.3"/>
<path d="M79.5736 31.3062H79.7236V31.1562V20.4415H83.9206V31.1562V31.3062H84.0706H89.4853H89.6353V31.1562V11.765V11.615H89.4853H84.0706H83.9206V11.765V17.4444H79.7236V1.17676V1.02676H79.5736H74.1177H73.9677V1.17676V31.1562V31.3062H74.1177H79.5736Z" fill="black" stroke="black" stroke-width="0.3"/>
<path d="M155.327 12.7909L155.177 12.7909V12.9409V31.5498V31.6998H155.327H165.633H165.783V31.5498V29.9028V29.7528H165.633H160.924V23.1704H165.633H165.783V23.0204V21.4793V21.3293H165.633H160.924V14.5116H165.633H165.783V14.3616V12.941V12.791L165.633 12.791L155.327 12.7909Z" fill="black" stroke="black" stroke-width="0.3"/>
<path d="M49.8495 37.8434V37.9934H49.9995H55.2547H55.4047V37.8434V27.3238H56.7943C58.4436 27.3238 61.0375 27.1292 63.2242 26.0541C64.3197 25.5155 65.3173 24.7537 66.0408 23.6809C66.765 22.6071 67.2083 21.2307 67.2083 19.4737C67.2083 17.5603 66.8402 16.093 66.2241 14.9698C65.6073 13.8455 64.7466 13.0747 63.7761 12.548C61.8427 11.4988 59.4717 11.4188 57.7181 11.4188H57.7161H57.7142H57.7123H57.7104H57.7084H57.7065H57.7046H57.7027H57.7008H57.6988H57.6969H57.695H57.6931H57.6912H57.6892H57.6873H57.6854H57.6835H57.6816H57.6797H57.6778H57.6758H57.6739H57.672H57.6701H57.6682H57.6663H57.6644H57.6625H57.6605H57.6586H57.6567H57.6548H57.6529H57.651H57.6491H57.6472H57.6453H57.6434H57.6415H57.6396H57.6376H57.6357H57.6338H57.6319H57.63H57.6281H57.6262H57.6243H57.6224H57.6205H57.6186H57.6167H57.6148H57.6129H57.611H57.6091H57.6072H57.6053H57.6034H57.6015H57.5996H57.5978H57.5959H57.594H57.5921H57.5902H57.5883H57.5864H57.5845H57.5826H57.5807H57.5788H57.5769H57.575H57.5732H57.5713H57.5694H57.5675H57.5656H57.5637H57.5618H57.5599H57.5581H57.5562H57.5543H57.5524H57.5505H57.5486H57.5468H57.5449H57.543H57.5411H57.5392H57.5374H57.5355H57.5336H57.5317H57.5298H57.528H57.5261H57.5242H57.5223H57.5205H57.5186H57.5167H57.5148H57.513H57.5111H57.5092H57.5073H57.5055H57.5036H57.5017H57.4999H57.498H57.4961H57.4942H57.4924H57.4905H57.4886H57.4868H57.4849H57.483H57.4812H57.4793H57.4774H57.4756H57.4737H57.4718H57.47H57.4681H57.4663H57.4644H57.4625H57.4607H57.4588H57.457H57.4551H57.4532H57.4514H57.4495H57.4477H57.4458H57.4439H57.4421H57.4402H57.4384H57.4365H57.4347H57.4328H57.431H57.4291H57.4273H57.4254H57.4236H57.4217H57.4199H57.418H57.4162H57.4143H57.4125H57.4106H57.4088H57.4069H57.4051H57.4032H57.4014H57.3995H57.3977H57.3958H57.394H57.3922H57.3903H57.3885H57.3866H57.3848H57.3829H57.3811H57.3793H57.3774H57.3756H57.3737H57.3719H57.3701H57.3682H57.3664H57.3646H57.3627H57.3609H57.3591H57.3572H57.3554H57.3536H57.3517H57.3499H57.3481H57.3462H57.3444H57.3426H57.3407H57.3389H57.3371H57.3352H57.3334H57.3316H57.3298H57.3279H57.3261H57.3243H57.3225H57.3206H57.3188H57.317H57.3152H57.3133H57.3115H57.3097H57.3079H57.306H57.3042H57.3024H57.3006H57.2988H57.2969H57.2951H57.2933H57.2915H57.2897H57.2879H57.286H57.2842H57.2824H57.2806H57.2788H57.277H57.2752H57.2733H57.2715H57.2697H57.2679H57.2661H57.2643H57.2625H57.2607H57.2589H57.257H57.2552H57.2534H57.2516H57.2498H57.248H57.2462H57.2444H57.2426H57.2408H57.239H57.2372H57.2354H57.2336H57.2318H57.23H57.2282H57.2264H57.2246H57.2228H57.221H57.2192H57.2174H57.2156H57.2138H57.212H57.2102H57.2084H57.2066H57.2048H57.203H57.2012H57.1994H57.1976H57.1958H57.194H57.1922H57.1905H57.1887H57.1869H57.1851H57.1833H57.1815H57.1797H57.1779H57.1761H57.1744H57.1726H57.1708H57.169H57.1672H57.1654H57.1636H57.1619H57.1601H57.1583H57.1565H57.1547H57.1529H57.1512H57.1494H57.1476H57.1458H57.144H57.1423H57.1405H57.1387H57.1369H57.1352H57.1334H57.1316H57.1298H57.1281H57.1263H57.1245H57.1227H57.121H57.1192H57.1174H57.1156H57.1139H57.1121H57.1103H57.1086H57.1068H57.105H57.1033H57.1015H57.0997H57.098H57.0962H57.0944H57.0927H57.0909H57.0891H57.0874H57.0856H57.0838H57.0821H57.0803H57.0785H57.0768H57.075H57.0733H57.0715H57.0697H57.068H57.0662H57.0645H57.0627H57.061H57.0592H57.0574H57.0557H57.0539H57.0522H57.0504H57.0487H57.0469H57.0452H57.0434H57.0417H57.0399H57.0382H57.0364H57.0347H57.0329H57.0312H57.0294H57.0277H57.0259H57.0242H57.0224H57.0207H57.0189H57.0172H57.0154H57.0137H57.012H57.0102H57.0085H57.0067H57.005H57.0032H57.0015H56.9998H56.998H56.9963H56.9945H56.9928H56.9911H56.9893H56.9876H56.9859H56.9841H56.9824H56.9806H56.9789H56.9772H56.9754H56.9737H56.972H56.9702H56.9685H56.9668H56.965H56.9633H56.9616H56.9599H56.9581H56.9564H56.9547H56.9529H56.9512H56.9495H56.9478H56.946H56.9443H56.9426H56.9409H56.9391H56.9374H56.9357H56.934H56.9322H56.9305H56.9288H56.9271H56.9254H56.9236H56.9219H56.9202H56.9185H56.9168H56.915H56.9133H56.9116H56.9099H56.9082H56.9065H56.9048H56.903H56.9013H56.8996H56.8979H56.8962H56.8945H56.8928H56.891H56.8893H56.8876H56.8859H56.8842H56.8825H56.8808H56.8791H56.8774H56.8757H56.874H56.8723H56.8706H56.8689H56.8671H56.8654H56.8637H56.862H56.8603H56.8586H56.8569H56.8552H56.8535H56.8518H56.8501H56.8484H56.8467H56.845H56.8433H56.8416H56.8399H56.8382H56.8365H56.8349H56.8332H56.8315H56.8298H56.8281H56.8264H56.8247H56.823H56.8213H56.8196H56.8179H56.8162H56.8145H56.8129H56.8112H56.8095H56.8078H56.8061H56.8044H56.8027H56.801H56.7994H56.7977H56.796H56.7943H49.9995H49.8495V11.5688V37.8434ZM56.24 24.7302H55.4047V14.0739H56.24H56.2408H56.2415H56.2422H56.2429H56.2437H56.2444H56.2451H56.2458H56.2466H56.2473H56.248H56.2487H56.2495H56.2502H56.2509H56.2517H56.2524H56.2531H56.2538H56.2546H56.2553H56.256H56.2568H56.2575H56.2582H56.259H56.2597H56.2604H56.2612H56.2619H56.2626H56.2634H56.2641H56.2648H56.2656H56.2663H56.2671H56.2678H56.2685H56.2693H56.27H56.2707H56.2715H56.2722H56.273H56.2737H56.2745H56.2752H56.2759H56.2767H56.2774H56.2782H56.2789H56.2797H56.2804H56.2811H56.2819H56.2826H56.2834H56.2841H56.2849H56.2856H56.2864H56.2871H56.2879H56.2886H56.2894H56.2901H56.2909H56.2916H56.2924H56.2931H56.2939H56.2946H56.2954H56.2961H56.2969H56.2976H56.2984H56.2991H56.2999H56.3006H56.3014H56.3021H56.3029H56.3037H56.3044H56.3052H56.3059H56.3067H56.3074H56.3082H56.3089H56.3097H56.3105H56.3112H56.312H56.3127H56.3135H56.3143H56.315H56.3158H56.3165H56.3173H56.3181H56.3188H56.3196H56.3203H56.3211H56.3219H56.3226H56.3234H56.3242H56.3249H56.3257H56.3264H56.3272H56.328H56.3287H56.3295H56.3303H56.331H56.3318H56.3326H56.3333H56.3341H56.3349H56.3356H56.3364H56.3372H56.3379H56.3387H56.3395H56.3402H56.341H56.3418H56.3425H56.3433H56.3441H56.3448H56.3456H56.3464H56.3472H56.3479H56.3487H56.3495H56.3502H56.351H56.3518H56.3526H56.3533H56.3541H56.3549H56.3556H56.3564H56.3572H56.358H56.3587H56.3595H56.3603H56.361H56.3618H56.3626H56.3634H56.3641H56.3649H56.3657H56.3665H56.3672H56.368H56.3688H56.3696H56.3703H56.3711H56.3719H56.3727H56.3734H56.3742H56.375H56.3758H56.3766H56.3773H56.3781H56.3789H56.3797H56.3804H56.3812H56.382H56.3828H56.3835H56.3843H56.3851H56.3859H56.3867H56.3874H56.3882H56.389H56.3898H56.3906H56.3913H56.3921H56.3929H56.3937H56.3944H56.3952H56.396H56.3968H56.3976H56.3983H56.3991H56.3999H56.4007H56.4015H56.4022H56.403H56.4038H56.4046H56.4054H56.4061H56.4069H56.4077H56.4085H56.4093H56.4101H56.4108H56.4116H56.4124H56.4132H56.414H56.4147H56.4155H56.4163H56.4171H56.4179H56.4186H56.4194H56.4202H56.421H56.4218H56.4226H56.4233H56.4241H56.4249H56.4257H56.4265H56.4272H56.428H56.4288H56.4296H56.4304H56.4312H56.4319H56.4327H56.4335H56.4343H56.4351H56.4358H56.4366H56.4374H56.4382H56.439H56.4398H56.4405H56.4413H56.4421H56.4429H56.4437H56.4444H56.4452H56.446H56.4468H56.4476H56.4484H56.4491H56.4499H56.4507H56.4515H56.4523H56.453H56.4538H56.4546H56.4554H56.4562H56.4569H56.4577H56.4585H56.4593H56.4601H56.4609H56.4616H56.4624H56.4632H56.464H56.4648H56.4655H56.4663H56.4671H56.4679H56.4687H56.4694H56.4702H56.471H56.4718H56.4726H56.4733H56.4741H56.4749H56.4757H56.4765H56.4772H56.478H56.4788H56.4796H56.4803H56.4811H56.4819H56.4827H56.4835H56.4842H56.485H56.4858H56.4866H56.4874H56.4881H56.4889H56.4897H56.4905H56.4912H56.492H56.4928H56.4936H56.4943H56.4951H56.4959H56.4967H56.4975H56.4982H56.499H56.4998H56.5006H56.5013H56.5021H56.5029H56.5037H56.5044H56.5052H56.506H56.5068H56.5075H56.5083H56.5091H56.5098H56.5106H56.5114H56.5122H56.5129H56.5137H56.5145H56.5153H56.516H56.5168H56.5176H56.5183H56.5191H56.5199H56.5207H56.5214H56.5222H56.523H56.5237H56.5245H56.5253H56.526H56.5268H56.5276H56.5284H56.5291H56.5299H56.5307H56.5314H56.5322H56.533H56.5337H56.5345H56.5353H56.536H56.5368H56.5376H56.5383H56.5391H56.5399H56.5406H56.5414H56.5422H56.5429H56.5437H56.5444H56.5452H56.546H56.5467H56.5475H56.5483H56.549H56.5498H56.5505H56.5513H56.5521H56.5528H56.5536H56.5543H56.5551H56.5559H56.5566H56.5574H56.5581H56.5589H56.5597H56.5604H56.5612H56.5619H56.5627H56.5634H56.5642H56.565H56.5657H56.5665H56.5672H56.568H56.5687H56.5695H56.5702H56.571H56.5717H56.5725H56.5733H56.574H56.5748H56.5755H56.5763H56.577H56.5778H56.5785H56.5793H56.58H56.5808H56.5815H56.5823H56.583H56.5838H56.5845H56.5853H56.586H56.5867H56.5875H56.5882H56.589H56.5897H56.5905H56.5912H56.592H56.5927H56.5934H56.5942H56.5949H56.5957H56.5964H56.5972H56.5979H56.5986H56.5994H56.6001H56.6009H56.6016H56.6023H56.6031H56.6038H56.6045H56.6053H56.606H56.6068H56.6075H56.6082H56.609H56.6097H56.6104H56.6112H56.6119H56.6126H56.6134H56.6141H56.6148H56.6156H56.6163H56.617H56.6177H56.6185H56.6192H56.6199H56.6207H56.6214H56.6221H56.6228H56.6236H56.6243H56.625H56.6257H56.6265H56.6272H56.6279H56.6286H56.6294H56.6301C57.7955 14.0739 59.0833 14.1134 60.0841 14.7954C61.0713 15.4681 61.8174 16.7967 61.8174 19.4737C61.8174 21.9976 60.9905 23.2929 59.9094 23.9697C58.8128 24.6562 57.4212 24.7302 56.24 24.7302Z" fill="white" stroke="white" stroke-width="0.3"/>
<path d="M46.5182 11.4455V11.2955H46.3682H41.1034H40.9534V11.4455V30V30.15H41.1034H46.3682H46.5182V30V11.4455ZM43.7665 2.98721C42.892 2.98721 42.1556 3.28305 41.6374 3.80172C41.1194 4.32029 40.8305 5.05072 40.8305 5.89976C40.8305 6.75872 41.1192 7.48948 41.6377 8.00581C42.1562 8.52213 42.8928 8.81232 43.7665 8.81232C44.5915 8.81232 45.3072 8.52057 45.8168 8.00497C46.3264 7.48938 46.6207 6.75941 46.6207 5.89976C46.6207 5.05004 46.3262 4.32038 45.8171 3.80257C45.3079 3.28464 44.5923 2.98721 43.7665 2.98721Z" fill="white" stroke="white" stroke-width="0.3"/>
<path d="M2.20303 7.40283V7.55283H2.35303H9.51895V29.9999V30.1499H9.66895H15.0889H15.2389V29.9999V7.55283H22.5491H22.6991V7.40283V3.5293V3.3793H22.5491H2.35303H2.20303V3.5293V7.40283Z" fill="white" stroke="white" stroke-width="0.3"/>
<path d="M27.1084 29.9544H27.2584V29.8044V22.15H28.4144L32.9832 29.8807L33.0267 29.9544H33.1123H37.5H37.7742L37.6263 29.7234L32.7352 22.089C34.4676 21.5368 35.5222 19.5937 35.5222 16.4682C35.5222 15.4455 35.2845 14.6242 34.8796 13.9693C34.475 13.3149 33.9086 12.8351 33.2638 12.4868C31.9788 11.7927 30.3714 11.6151 29.0623 11.6151H22.333H22.183V11.7651V29.8044V29.9544H22.333H27.1084ZM29.1911 20.8616L27.2584 20.8616V14.616H29.2952C29.9899 14.616 30.6219 14.6661 31.0827 14.9778C31.5289 15.2797 31.85 15.8547 31.85 17C31.85 17.601 31.8499 18.1433 31.8067 18.6228C31.7636 19.1024 31.6782 19.5064 31.5148 19.8331C31.3536 20.1555 31.114 20.4073 30.7504 20.5817C30.3827 20.758 29.8807 20.8588 29.1913 20.8616C29.1912 20.8616 29.1911 20.8616 29.1911 20.8616Z" fill="white" stroke="white" stroke-width="0.3"/>
</svg>
